<svg width="144" height="54" viewBox="0 0 144 54" fill="none" xmlns="http://www.w3.org/2000/svg">
<mask id="path-1-outside-1_1002_192" maskUnits="userSpaceOnUse" x="0.335938" y="0.54541" width="143" height="53" fill="black">
<rect fill="white" x="0.335938" y="0.54541" width="143" height="53"/>
<path d="M73.8537 23L68.706 5.54541H73.9901L76.3764 16.284H76.5128L79.3423 5.54541H83.5014L86.331 16.3181H86.4673L88.8537 5.54541H94.1378L88.9901 23H84.456L81.4901 13.25H81.3537L78.3878 23H73.8537Z"/>
<path d="M100.523 23.2386C99.103 23.2386 97.8871 22.9573 96.8757 22.3948C95.8643 21.8267 95.0888 21.0369 94.549 20.0255C94.0092 19.0085 93.7393 17.8295 93.7393 16.4886C93.7393 15.1477 94.0092 13.9715 94.549 12.9602C95.0888 11.9431 95.8643 11.1534 96.8757 10.5909C97.8871 10.0227 99.103 9.73859 100.523 9.73859C101.944 9.73859 103.16 10.0227 104.171 10.5909C105.183 11.1534 105.958 11.9431 106.498 12.9602C107.038 13.9715 107.308 15.1477 107.308 16.4886C107.308 17.8295 107.038 19.0085 106.498 20.0255C105.958 21.0369 105.183 21.8267 104.171 22.3948C103.16 22.9573 101.944 23.2386 100.523 23.2386ZM100.558 19.7613C100.955 19.7613 101.299 19.6278 101.589 19.3608C101.879 19.0937 102.103 18.713 102.262 18.2187C102.421 17.7244 102.501 17.1363 102.501 16.4545C102.501 15.767 102.421 15.1789 102.262 14.6903C102.103 14.196 101.879 13.8153 101.589 13.5483C101.299 13.2812 100.955 13.1477 100.558 13.1477C100.137 13.1477 99.7763 13.2812 99.4751 13.5483C99.174 13.8153 98.9439 14.196 98.7848 14.6903C98.6257 15.1789 98.5462 15.767 98.5462 16.4545C98.5462 17.1363 98.6257 17.7244 98.7848 18.2187C98.9439 18.713 99.174 19.0937 99.4751 19.3608C99.7763 19.6278 100.137 19.7613 100.558 19.7613Z"/>
<path d="M109.217 23V9.90905H113.785V12.3977H113.921C114.16 11.4772 114.538 10.8039 115.055 10.3778C115.577 9.95166 116.188 9.73859 116.887 9.73859C117.092 9.73859 117.293 9.75564 117.492 9.78973C117.697 9.81814 117.893 9.86075 118.08 9.91757V13.9318C117.847 13.8522 117.56 13.7926 117.219 13.7528C116.879 13.713 116.586 13.6931 116.342 13.6931C115.881 13.6931 115.467 13.7983 115.097 14.0085C114.734 14.213 114.447 14.5028 114.236 14.8778C114.026 15.2471 113.921 15.6818 113.921 16.1818V23H109.217Z"/>
<path d="M124.327 5.54541V23H119.623V5.54541H124.327Z"/>
<path d="M131.463 23.1704C130.531 23.1704 129.673 22.9261 128.889 22.4375C128.111 21.9488 127.486 21.2073 127.014 20.213C126.548 19.2187 126.315 17.9659 126.315 16.4545C126.315 14.875 126.56 13.5909 127.048 12.6022C127.543 11.6136 128.179 10.8892 128.957 10.4289C129.741 9.96871 130.565 9.73859 131.429 9.73859C132.077 9.73859 132.645 9.85223 133.134 10.0795C133.622 10.3011 134.031 10.5994 134.361 10.9744C134.69 11.3437 134.94 11.75 135.111 12.1931H135.179V5.54541H139.884V23H135.213V20.8522H135.111C134.929 21.2954 134.668 21.6931 134.327 22.0454C133.991 22.392 133.582 22.6676 133.099 22.8721C132.622 23.071 132.077 23.1704 131.463 23.1704ZM133.202 19.5568C133.634 19.5568 134.003 19.4318 134.31 19.1818C134.622 18.9261 134.861 18.5681 135.026 18.1079C135.196 17.642 135.281 17.0909 135.281 16.4545C135.281 15.8068 135.196 15.2528 135.026 14.7926C134.861 14.3267 134.622 13.9715 134.31 13.7272C134.003 13.4772 133.634 13.3522 133.202 13.3522C132.77 13.3522 132.401 13.4772 132.094 13.7272C131.793 13.9715 131.56 14.3267 131.395 14.7926C131.236 15.2528 131.156 15.8068 131.156 16.4545C131.156 17.1022 131.236 17.659 131.395 18.125C131.56 18.5852 131.793 18.9403 132.094 19.1903C132.401 19.4346 132.77 19.5568 133.202 19.5568Z"/>
<path d="M1.33594 34.5454H7.23366L11.2905 44.4318H11.495L15.5518 34.5454H21.4496V52H16.8132V41.909H16.6768L12.7905 51.8636H9.99503L6.10866 41.8409H5.9723V52H1.33594V34.5454Z"/>
<path d="M32.2521 46.2727V38.909H36.9567V52H32.4908V49.5113H32.3544C32.0703 50.3465 31.5732 51 30.8629 51.4715C30.1527 51.9375 29.3089 52.1704 28.3317 52.1704C27.4169 52.1704 26.6158 51.9602 25.9283 51.5397C25.2464 51.1193 24.7152 50.5397 24.3345 49.8011C23.9595 49.0625 23.7692 48.2159 23.7635 47.2613V38.909H28.468V46.2727C28.4737 46.9204 28.6385 47.4289 28.9624 47.7982C29.2919 48.1676 29.7521 48.3522 30.343 48.3522C30.7351 48.3522 31.0732 48.2698 31.3572 48.1051C31.647 47.9346 31.8686 47.696 32.022 47.3892C32.1811 47.0767 32.2578 46.7045 32.2521 46.2727Z"/>
<path d="M51.3153 43.1704H46.9858C46.9631 42.9034 46.8693 42.6732 46.7045 42.4801C46.5398 42.2869 46.3267 42.1392 46.0653 42.0369C45.8097 41.9289 45.5256 41.875 45.2131 41.875C44.8097 41.875 44.4631 41.9488 44.1733 42.0965C43.8835 42.2443 43.7415 42.4545 43.7472 42.7272C43.7415 42.9204 43.8239 43.0994 43.9943 43.2642C44.1705 43.4289 44.5085 43.5568 45.0085 43.6477L47.6676 44.125C49.0085 44.3693 50.0057 44.7812 50.6591 45.3607C51.3182 45.9346 51.6506 46.7045 51.6562 47.6704C51.6506 48.6022 51.3722 49.4119 50.821 50.0994C50.2756 50.7812 49.5284 51.3096 48.5795 51.6846C47.6364 52.0539 46.5597 52.2386 45.3494 52.2386C43.3494 52.2386 41.7841 51.8295 40.6534 51.0113C39.5284 50.1931 38.9006 49.1136 38.7699 47.7727H43.4403C43.5028 48.1875 43.7074 48.5085 44.054 48.7357C44.4062 48.9573 44.8494 49.0681 45.3835 49.0681C45.8153 49.0681 46.1705 48.9943 46.4489 48.8465C46.733 48.6988 46.8778 48.4886 46.8835 48.2159C46.8778 47.9659 46.7528 47.767 46.5085 47.6193C46.2699 47.4715 45.8949 47.3522 45.3835 47.2613L43.0653 46.8522C41.7301 46.6193 40.7301 46.1761 40.0653 45.5227C39.4006 44.8693 39.071 44.0284 39.0767 43C39.071 42.0909 39.3097 41.321 39.7926 40.6903C40.2812 40.0539 40.9773 39.571 41.8807 39.2414C42.7898 38.9062 43.8665 38.7386 45.1108 38.7386C47.0028 38.7386 48.4943 39.1306 49.5852 39.9147C50.6818 40.6988 51.2585 41.784 51.3153 43.1704Z"/>
<path d="M53.4588 52V38.909H58.1633V52H53.4588ZM55.8111 37.5454C55.1747 37.5454 54.6293 37.3352 54.1747 36.9147C53.7202 36.4943 53.4929 35.9886 53.4929 35.3977C53.4929 34.8068 53.7202 34.3011 54.1747 33.8806C54.6293 33.4602 55.1747 33.25 55.8111 33.25C56.4531 33.25 56.9986 33.4602 57.4474 33.8806C57.902 34.3011 58.1293 34.8068 58.1293 35.3977C58.1293 35.9886 57.902 36.4943 57.4474 36.9147C56.9986 37.3352 56.4531 37.5454 55.8111 37.5454Z"/>
<path d="M66.8672 52.2386C65.4467 52.2386 64.2308 51.9573 63.2195 51.3948C62.2081 50.8267 61.4325 50.0369 60.8928 49.0255C60.353 48.0085 60.0831 46.8295 60.0831 45.4886C60.0831 44.1477 60.353 42.9715 60.8928 41.9602C61.4325 40.9431 62.2081 40.1534 63.2195 39.5909C64.2308 39.0227 65.4467 38.7386 66.8672 38.7386C68.1513 38.7386 69.2621 38.9715 70.1996 39.4375C71.1428 39.8977 71.8729 40.5511 72.3899 41.3977C72.907 42.2386 73.1683 43.2272 73.174 44.3636H68.8104C68.7479 43.6761 68.549 43.1534 68.2138 42.7954C67.8842 42.4318 67.4581 42.25 66.9354 42.25C66.5263 42.25 66.1683 42.3693 65.8615 42.6079C65.5547 42.8409 65.316 43.196 65.1456 43.6732C64.9751 44.1448 64.8899 44.7386 64.8899 45.4545C64.8899 46.1704 64.9751 46.767 65.1456 47.2443C65.316 47.7159 65.5547 48.071 65.8615 48.3096C66.1683 48.5426 66.5263 48.659 66.9354 48.659C67.282 48.659 67.5888 48.5795 67.8558 48.4204C68.1229 48.2556 68.3388 48.017 68.5035 47.7045C68.674 47.3863 68.7763 47 68.8104 46.5454H73.174C73.157 47.6988 72.8927 48.7045 72.3814 49.5625C71.87 50.4147 71.1456 51.0738 70.2081 51.5397C69.2763 52.0056 68.1626 52.2386 66.8672 52.2386Z"/>
<path d="M91.1633 40.3068C91.0895 40.0056 90.973 39.7414 90.8139 39.5142C90.6548 39.2812 90.456 39.0852 90.2173 38.9261C89.9844 38.7613 89.7116 38.6392 89.3991 38.5596C89.0923 38.4744 88.7543 38.4318 88.3849 38.4318C87.5895 38.4318 86.9105 38.6221 86.348 39.0028C85.7912 39.3835 85.365 39.9318 85.0696 40.6477C84.7798 41.3636 84.6349 42.2272 84.6349 43.2386C84.6349 44.2613 84.7741 45.1363 85.0526 45.8636C85.331 46.5909 85.7457 47.1477 86.2969 47.534C86.848 47.9204 87.5327 48.1136 88.3508 48.1136C89.0724 48.1136 89.6719 48.0085 90.1491 47.7982C90.6321 47.588 90.9929 47.2897 91.2315 46.9034C91.4702 46.517 91.5895 46.0625 91.5895 45.5397L92.4077 45.625H88.419V42.25H96.1577V44.6704C96.1577 46.2613 95.8196 47.6221 95.1435 48.7528C94.473 49.8778 93.5469 50.7414 92.3651 51.3437C91.1889 51.9403 89.8395 52.2386 88.3168 52.2386C86.6179 52.2386 85.1264 51.8778 83.8423 51.1562C82.5582 50.4346 81.5554 49.4062 80.8338 48.071C80.1179 46.7357 79.7599 45.1477 79.7599 43.3068C79.7599 41.8636 79.9787 40.5852 80.4162 39.4715C80.8594 38.3579 81.473 37.4176 82.2571 36.6505C83.0412 35.8778 83.9474 35.2954 84.9758 34.9034C86.0043 34.5056 87.1065 34.3068 88.2827 34.3068C89.3168 34.3068 90.277 34.4545 91.1633 34.75C92.0554 35.0397 92.8423 35.4545 93.5241 35.9943C94.2116 36.5284 94.7656 37.1619 95.1861 37.8948C95.6065 38.6278 95.8622 39.4318 95.9531 40.3068H91.1633Z"/>
<path d="M104.708 52.2386C103.31 52.2386 102.106 51.9715 101.094 51.4375C100.089 50.8977 99.3132 50.125 98.7678 49.1193C98.228 48.1079 97.9581 46.8977 97.9581 45.4886C97.9581 44.1363 98.2308 42.9545 98.7763 41.9431C99.3217 40.9318 100.092 40.1448 101.086 39.5823C102.08 39.0198 103.254 38.7386 104.606 38.7386C105.594 38.7386 106.489 38.892 107.29 39.1988C108.092 39.5056 108.776 39.9517 109.344 40.5369C109.913 41.1164 110.35 41.821 110.657 42.6505C110.964 43.4801 111.117 44.4147 111.117 45.4545V46.5454H99.424V43.9545H106.788C106.782 43.5795 106.685 43.25 106.498 42.9659C106.316 42.6761 106.069 42.4517 105.756 42.2926C105.45 42.1278 105.1 42.0454 104.708 42.0454C104.327 42.0454 103.978 42.1278 103.66 42.2926C103.342 42.4517 103.086 42.6732 102.893 42.9573C102.705 43.2414 102.606 43.5738 102.594 43.9545V46.75C102.594 47.1704 102.683 47.5454 102.859 47.875C103.035 48.2045 103.288 48.463 103.617 48.6505C103.947 48.838 104.344 48.9318 104.81 48.9318C105.134 48.9318 105.43 48.8863 105.697 48.7954C105.969 48.7045 106.202 48.5738 106.396 48.4034C106.589 48.2272 106.731 48.017 106.822 47.7727H111.117C110.969 48.6818 110.62 49.4715 110.069 50.142C109.518 50.8068 108.788 51.3238 107.879 51.6931C106.975 52.0568 105.918 52.2386 104.708 52.2386Z"/>
<path d="M119.31 52.2386C117.912 52.2386 116.707 51.9715 115.696 51.4375C114.69 50.8977 113.915 50.125 113.369 49.1193C112.83 48.1079 112.56 46.8977 112.56 45.4886C112.56 44.1363 112.832 42.9545 113.378 41.9431C113.923 40.9318 114.693 40.1448 115.687 39.5823C116.682 39.0198 117.855 38.7386 119.207 38.7386C120.196 38.7386 121.091 38.892 121.892 39.1988C122.693 39.5056 123.378 39.9517 123.946 40.5369C124.514 41.1164 124.952 41.821 125.259 42.6505C125.565 43.4801 125.719 44.4147 125.719 45.4545V46.5454H114.026V43.9545H121.389C121.384 43.5795 121.287 43.25 121.099 42.9659C120.918 42.6761 120.67 42.4517 120.358 42.2926C120.051 42.1278 119.702 42.0454 119.31 42.0454C118.929 42.0454 118.58 42.1278 118.261 42.2926C117.943 42.4517 117.687 42.6732 117.494 42.9573C117.307 43.2414 117.207 43.5738 117.196 43.9545V46.75C117.196 47.1704 117.284 47.5454 117.46 47.875C117.636 48.2045 117.889 48.463 118.219 48.6505C118.548 48.838 118.946 48.9318 119.412 48.9318C119.736 48.9318 120.031 48.8863 120.298 48.7954C120.571 48.7045 120.804 48.5738 120.997 48.4034C121.19 48.2272 121.332 48.017 121.423 47.7727H125.719C125.571 48.6818 125.222 49.4715 124.67 50.142C124.119 50.8068 123.389 51.3238 122.48 51.6931C121.577 52.0568 120.52 52.2386 119.31 52.2386Z"/>
<path d="M131.866 48.8977L131.9 43.3068H132.513L135.684 38.909H140.968L135.65 45.7613H134.32L131.866 48.8977ZM127.638 52V34.5454H132.343V52H127.638ZM135.718 52L132.718 46.8181L135.786 43.4772L141.104 52H135.718Z"/>
<path d="M73.8537 19L68.706 1.54541H73.9901L76.3764 12.284H76.5128L79.3423 1.54541H83.5014L86.331 12.3181H86.4673L88.8537 1.54541H94.1378L88.9901 19H84.456L81.4901 9.24996H81.3537L78.3878 19H73.8537Z"/>
<path d="M100.523 19.2386C99.103 19.2386 97.8871 18.9573 96.8757 18.3948C95.8643 17.8267 95.0888 17.0369 94.549 16.0255C94.0092 15.0085 93.7393 13.8295 93.7393 12.4886C93.7393 11.1477 94.0092 9.97155 94.549 8.96018C95.0888 7.94314 95.8643 7.15336 96.8757 6.59086C97.8871 6.02268 99.103 5.73859 100.523 5.73859C101.944 5.73859 103.16 6.02268 104.171 6.59086C105.183 7.15336 105.958 7.94314 106.498 8.96018C107.038 9.97155 107.308 11.1477 107.308 12.4886C107.308 13.8295 107.038 15.0085 106.498 16.0255C105.958 17.0369 105.183 17.8267 104.171 18.3948C103.16 18.9573 101.944 19.2386 100.523 19.2386ZM100.558 15.7613C100.955 15.7613 101.299 15.6278 101.589 15.3608C101.879 15.0937 102.103 14.713 102.262 14.2187C102.421 13.7244 102.501 13.1363 102.501 12.4545C102.501 11.767 102.421 11.1789 102.262 10.6903C102.103 10.196 101.879 9.8153 101.589 9.54825C101.299 9.28121 100.955 9.14768 100.558 9.14768C100.137 9.14768 99.7763 9.28121 99.4751 9.54825C99.174 9.8153 98.9439 10.196 98.7848 10.6903C98.6257 11.1789 98.5462 11.767 98.5462 12.4545C98.5462 13.1363 98.6257 13.7244 98.7848 14.2187C98.9439 14.713 99.174 15.0937 99.4751 15.3608C99.7763 15.6278 100.137 15.7613 100.558 15.7613Z"/>
<path d="M109.217 19V5.90905H113.785V8.39768H113.921C114.16 7.47723 114.538 6.80393 115.055 6.3778C115.577 5.95166 116.188 5.73859 116.887 5.73859C117.092 5.73859 117.293 5.75564 117.492 5.78973C117.697 5.81814 117.893 5.86075 118.08 5.91757V9.93177C117.847 9.85223 117.56 9.79257 117.219 9.7528C116.879 9.71302 116.586 9.69314 116.342 9.69314C115.881 9.69314 115.467 9.79825 115.097 10.0085C114.734 10.213 114.447 10.5028 114.236 10.8778C114.026 11.2471 113.921 11.6818 113.921 12.1818V19H109.217Z"/>
<path d="M124.327 1.54541V19H119.623V1.54541H124.327Z"/>
<path d="M131.463 19.1704C130.531 19.1704 129.673 18.9261 128.889 18.4375C128.111 17.9488 127.486 17.2073 127.014 16.213C126.548 15.2187 126.315 13.9659 126.315 12.4545C126.315 10.875 126.56 9.59086 127.048 8.60223C127.543 7.61359 128.179 6.88916 128.957 6.42893C129.741 5.96871 130.565 5.73859 131.429 5.73859C132.077 5.73859 132.645 5.85223 133.134 6.0795C133.622 6.30109 134.031 6.59939 134.361 6.97439C134.69 7.34371 134.94 7.74996 135.111 8.19314H135.179V1.54541L139.884 1.54541V19H135.213V16.8522H135.111C134.929 17.2954 134.668 17.6931 134.327 18.0454C133.991 18.392 133.582 18.6676 133.099 18.8721C132.622 19.071 132.077 19.1704 131.463 19.1704ZM133.202 15.5568C133.634 15.5568 134.003 15.4318 134.31 15.1818C134.622 14.9261 134.861 14.5681 135.026 14.1079C135.196 13.642 135.281 13.0909 135.281 12.4545C135.281 11.8068 135.196 11.2528 135.026 10.7926C134.861 10.3267 134.622 9.97155 134.31 9.72723C134.003 9.47723 133.634 9.35223 133.202 9.35223C132.77 9.35223 132.401 9.47723 132.094 9.72723C131.793 9.97155 131.56 10.3267 131.395 10.7926C131.236 11.2528 131.156 11.8068 131.156 12.4545C131.156 13.1022 131.236 13.659 131.395 14.125C131.56 14.5852 131.793 14.9403 132.094 15.1903C132.401 15.4346 132.77 15.5568 133.202 15.5568Z"/>
<path d="M1.33594 30.5454H7.23366L11.2905 40.4318H11.495L15.5518 30.5454H21.4496V48H16.8132V37.909H16.6768L12.7905 47.8636H9.99503L6.10866 37.8409H5.9723V48H1.33594V30.5454Z"/>
<path d="M32.2521 42.2727V34.909H36.9567V48H32.4908V45.5113H32.3544C32.0703 46.3465 31.5732 47 30.8629 47.4715C30.1527 47.9375 29.3089 48.1704 28.3317 48.1704C27.4169 48.1704 26.6158 47.9602 25.9283 47.5397C25.2464 47.1193 24.7152 46.5397 24.3345 45.8011C23.9595 45.0625 23.7692 44.2159 23.7635 43.2613V34.909H28.468V42.2727C28.4737 42.9204 28.6385 43.4289 28.9624 43.7982C29.2919 44.1676 29.7521 44.3522 30.343 44.3522C30.7351 44.3522 31.0732 44.2698 31.3572 44.1051C31.647 43.9346 31.8686 43.696 32.022 43.3892C32.1811 43.0767 32.2578 42.7045 32.2521 42.2727Z"/>
<path d="M51.3153 39.1704H46.9858C46.9631 38.9034 46.8693 38.6732 46.7045 38.4801C46.5398 38.2869 46.3267 38.1392 46.0653 38.0369C45.8097 37.9289 45.5256 37.875 45.2131 37.875C44.8097 37.875 44.4631 37.9488 44.1733 38.0965C43.8835 38.2443 43.7415 38.4545 43.7472 38.7272C43.7415 38.9204 43.8239 39.0994 43.9943 39.2642C44.1705 39.4289 44.5085 39.5568 45.0085 39.6477L47.6676 40.125C49.0085 40.3693 50.0057 40.7812 50.6591 41.3607C51.3182 41.9346 51.6506 42.7045 51.6562 43.6704C51.6506 44.6022 51.3722 45.4119 50.821 46.0994C50.2756 46.7812 49.5284 47.3096 48.5795 47.6846C47.6364 48.0539 46.5597 48.2386 45.3494 48.2386C43.3494 48.2386 41.7841 47.8295 40.6534 47.0113C39.5284 46.1931 38.9006 45.1136 38.7699 43.7727H43.4403C43.5028 44.1875 43.7074 44.5085 44.054 44.7357C44.4062 44.9573 44.8494 45.0681 45.3835 45.0681C45.8153 45.0681 46.1705 44.9943 46.4489 44.8465C46.733 44.6988 46.8778 44.4886 46.8835 44.2159C46.8778 43.9659 46.7528 43.767 46.5085 43.6193C46.2699 43.4715 45.8949 43.3522 45.3835 43.2613L43.0653 42.8522C41.7301 42.6193 40.7301 42.1761 40.0653 41.5227C39.4006 40.8693 39.071 40.0284 39.0767 39C39.071 38.0909 39.3097 37.321 39.7926 36.6903C40.2812 36.0539 40.9773 35.571 41.8807 35.2414C42.7898 34.9062 43.8665 34.7386 45.1108 34.7386C47.0028 34.7386 48.4943 35.1306 49.5852 35.9147C50.6818 36.6988 51.2585 37.784 51.3153 39.1704Z"/>
<path d="M53.4588 48V34.909H58.1633V48H53.4588ZM55.8111 33.5454C55.1747 33.5454 54.6293 33.3352 54.1747 32.9147C53.7202 32.4943 53.4929 31.9886 53.4929 31.3977C53.4929 30.8068 53.7202 30.3011 54.1747 29.8806C54.6293 29.4602 55.1747 29.25 55.8111 29.25C56.4531 29.25 56.9986 29.4602 57.4474 29.8806C57.902 30.3011 58.1293 30.8068 58.1293 31.3977C58.1293 31.9886 57.902 32.4943 57.4474 32.9147C56.9986 33.3352 56.4531 33.5454 55.8111 33.5454Z"/>
<path d="M66.8672 48.2386C65.4467 48.2386 64.2308 47.9573 63.2195 47.3948C62.2081 46.8267 61.4325 46.0369 60.8928 45.0255C60.353 44.0085 60.0831 42.8295 60.0831 41.4886C60.0831 40.1477 60.353 38.9715 60.8928 37.9602C61.4325 36.9431 62.2081 36.1534 63.2195 35.5909C64.2308 35.0227 65.4467 34.7386 66.8672 34.7386C68.1513 34.7386 69.2621 34.9715 70.1996 35.4375C71.1428 35.8977 71.8729 36.5511 72.3899 37.3977C72.907 38.2386 73.1683 39.2272 73.174 40.3636H68.8104C68.7479 39.6761 68.549 39.1534 68.2138 38.7954C67.8842 38.4318 67.4581 38.25 66.9354 38.25C66.5263 38.25 66.1683 38.3693 65.8615 38.6079C65.5547 38.8409 65.316 39.196 65.1456 39.6732C64.9751 40.1448 64.8899 40.7386 64.8899 41.4545C64.8899 42.1704 64.9751 42.767 65.1456 43.2443C65.316 43.7159 65.5547 44.071 65.8615 44.3096C66.1683 44.5426 66.5263 44.659 66.9354 44.659C67.282 44.659 67.5888 44.5795 67.8558 44.4204C68.1229 44.2556 68.3388 44.017 68.5035 43.7045C68.674 43.3863 68.7763 43 68.8104 42.5454H73.174C73.157 43.6988 72.8927 44.7045 72.3814 45.5625C71.87 46.4147 71.1456 47.0738 70.2081 47.5397C69.2763 48.0056 68.1626 48.2386 66.8672 48.2386Z"/>
<path d="M91.1633 36.3068C91.0895 36.0056 90.973 35.7414 90.8139 35.5142C90.6548 35.2812 90.456 35.0852 90.2173 34.9261C89.9844 34.7613 89.7116 34.6392 89.3991 34.5596C89.0923 34.4744 88.7543 34.4318 88.3849 34.4318C87.5895 34.4318 86.9105 34.6221 86.348 35.0028C85.7912 35.3835 85.365 35.9318 85.0696 36.6477C84.7798 37.3636 84.6349 38.2272 84.6349 39.2386C84.6349 40.2613 84.7741 41.1363 85.0526 41.8636C85.331 42.5909 85.7457 43.1477 86.2969 43.534C86.848 43.9204 87.5327 44.1136 88.3508 44.1136C89.0724 44.1136 89.6719 44.0085 90.1491 43.7982C90.6321 43.588 90.9929 43.2897 91.2315 42.9034C91.4702 42.517 91.5895 42.0625 91.5895 41.5397L92.4077 41.625H88.419V38.25H96.1577V40.6704C96.1577 42.2613 95.8196 43.6221 95.1435 44.7528C94.473 45.8778 93.5469 46.7414 92.3651 47.3437C91.1889 47.9403 89.8395 48.2386 88.3168 48.2386C86.6179 48.2386 85.1264 47.8778 83.8423 47.1562C82.5582 46.4346 81.5554 45.4062 80.8338 44.071C80.1179 42.7357 79.7599 41.1477 79.7599 39.3068C79.7599 37.8636 79.9787 36.5852 80.4162 35.4715C80.8594 34.3579 81.473 33.4176 82.2571 32.6505C83.0412 31.8778 83.9474 31.2954 84.9758 30.9034C86.0043 30.5056 87.1065 30.3068 88.2827 30.3068C89.3168 30.3068 90.277 30.4545 91.1633 30.75C92.0554 31.0397 92.8423 31.4545 93.5241 31.9943C94.2116 32.5284 94.7656 33.1619 95.1861 33.8948C95.6065 34.6278 95.8622 35.4318 95.9531 36.3068H91.1633Z"/>
<path d="M104.708 48.2386C103.31 48.2386 102.106 47.9715 101.094 47.4375C100.089 46.8977 99.3132 46.125 98.7678 45.1193C98.228 44.1079 97.9581 42.8977 97.9581 41.4886C97.9581 40.1363 98.2308 38.9545 98.7763 37.9431C99.3217 36.9318 100.092 36.1448 101.086 35.5823C102.08 35.0198 103.254 34.7386 104.606 34.7386C105.594 34.7386 106.489 34.892 107.29 35.1988C108.092 35.5056 108.776 35.9517 109.344 36.5369C109.913 37.1164 110.35 37.821 110.657 38.6505C110.964 39.4801 111.117 40.4147 111.117 41.4545V42.5454H99.424V39.9545H106.788C106.782 39.5795 106.685 39.25 106.498 38.9659C106.316 38.6761 106.069 38.4517 105.756 38.2926C105.45 38.1278 105.1 38.0454 104.708 38.0454C104.327 38.0454 103.978 38.1278 103.66 38.2926C103.342 38.4517 103.086 38.6732 102.893 38.9573C102.705 39.2414 102.606 39.5738 102.594 39.9545V42.75C102.594 43.1704 102.683 43.5454 102.859 43.875C103.035 44.2045 103.288 44.463 103.617 44.6505C103.947 44.838 104.344 44.9318 104.81 44.9318C105.134 44.9318 105.43 44.8863 105.697 44.7954C105.969 44.7045 106.202 44.5738 106.396 44.4034C106.589 44.2272 106.731 44.017 106.822 43.7727H111.117C110.969 44.6818 110.62 45.4715 110.069 46.142C109.518 46.8068 108.788 47.3238 107.879 47.6931C106.975 48.0568 105.918 48.2386 104.708 48.2386Z"/>
<path d="M119.31 48.2386C117.912 48.2386 116.707 47.9715 115.696 47.4375C114.69 46.8977 113.915 46.125 113.369 45.1193C112.83 44.1079 112.56 42.8977 112.56 41.4886C112.56 40.1363 112.832 38.9545 113.378 37.9431C113.923 36.9318 114.693 36.1448 115.687 35.5823C116.682 35.0198 117.855 34.7386 119.207 34.7386C120.196 34.7386 121.091 34.892 121.892 35.1988C122.693 35.5056 123.378 35.9517 123.946 36.5369C124.514 37.1164 124.952 37.821 125.259 38.6505C125.565 39.4801 125.719 40.4147 125.719 41.4545V42.5454H114.026V39.9545H121.389C121.384 39.5795 121.287 39.25 121.099 38.9659C120.918 38.6761 120.67 38.4517 120.358 38.2926C120.051 38.1278 119.702 38.0454 119.31 38.0454C118.929 38.0454 118.58 38.1278 118.261 38.2926C117.943 38.4517 117.687 38.6732 117.494 38.9573C117.307 39.2414 117.207 39.5738 117.196 39.9545V42.75C117.196 43.1704 117.284 43.5454 117.46 43.875C117.636 44.2045 117.889 44.463 118.219 44.6505C118.548 44.838 118.946 44.9318 119.412 44.9318C119.736 44.9318 120.031 44.8863 120.298 44.7954C120.571 44.7045 120.804 44.5738 120.997 44.4034C121.19 44.2272 121.332 44.017 121.423 43.7727H125.719C125.571 44.6818 125.222 45.4715 124.67 46.142C124.119 46.8068 123.389 47.3238 122.48 47.6931C121.577 48.0568 120.52 48.2386 119.31 48.2386Z"/>
<path d="M131.866 44.8977L131.9 39.3068H132.513L135.684 34.909H140.968L135.65 41.7613H134.32L131.866 44.8977ZM127.638 48V30.5454H132.343V48H127.638ZM135.718 48L132.718 42.8181L135.786 39.4772L141.104 48H135.718Z"/>
</mask>
<path d="M73.8537 23L68.706 5.54541H73.9901L76.3764 16.284H76.5128L79.3423 5.54541H83.5014L86.331 16.3181H86.4673L88.8537 5.54541H94.1378L88.9901 23H84.456L81.4901 13.25H81.3537L78.3878 23H73.8537Z" fill="black"/>
<path d="M100.523 23.2386C99.103 23.2386 97.8871 22.9573 96.8757 22.3948C95.8643 21.8267 95.0888 21.0369 94.549 20.0255C94.0092 19.0085 93.7393 17.8295 93.7393 16.4886C93.7393 15.1477 94.0092 13.9715 94.549 12.9602C95.0888 11.9431 95.8643 11.1534 96.8757 10.5909C97.8871 10.0227 99.103 9.73859 100.523 9.73859C101.944 9.73859 103.16 10.0227 104.171 10.5909C105.183 11.1534 105.958 11.9431 106.498 12.9602C107.038 13.9715 107.308 15.1477 107.308 16.4886C107.308 17.8295 107.038 19.0085 106.498 20.0255C105.958 21.0369 105.183 21.8267 104.171 22.3948C103.16 22.9573 101.944 23.2386 100.523 23.2386ZM100.558 19.7613C100.955 19.7613 101.299 19.6278 101.589 19.3608C101.879 19.0937 102.103 18.713 102.262 18.2187C102.421 17.7244 102.501 17.1363 102.501 16.4545C102.501 15.767 102.421 15.1789 102.262 14.6903C102.103 14.196 101.879 13.8153 101.589 13.5483C101.299 13.2812 100.955 13.1477 100.558 13.1477C100.137 13.1477 99.7763 13.2812 99.4751 13.5483C99.174 13.8153 98.9439 14.196 98.7848 14.6903C98.6257 15.1789 98.5462 15.767 98.5462 16.4545C98.5462 17.1363 98.6257 17.7244 98.7848 18.2187C98.9439 18.713 99.174 19.0937 99.4751 19.3608C99.7763 19.6278 100.137 19.7613 100.558 19.7613Z" fill="black"/>
<path d="M109.217 23V9.90905H113.785V12.3977H113.921C114.16 11.4772 114.538 10.8039 115.055 10.3778C115.577 9.95166 116.188 9.73859 116.887 9.73859C117.092 9.73859 117.293 9.75564 117.492 9.78973C117.697 9.81814 117.893 9.86075 118.08 9.91757V13.9318C117.847 13.8522 117.56 13.7926 117.219 13.7528C116.879 13.713 116.586 13.6931 116.342 13.6931C115.881 13.6931 115.467 13.7983 115.097 14.0085C114.734 14.213 114.447 14.5028 114.236 14.8778C114.026 15.2471 113.921 15.6818 113.921 16.1818V23H109.217Z" fill="black"/>
<path d="M124.327 5.54541V23H119.623V5.54541H124.327Z" fill="black"/>
<path d="M131.463 23.1704C130.531 23.1704 129.673 22.9261 128.889 22.4375C128.111 21.9488 127.486 21.2073 127.014 20.213C126.548 19.2187 126.315 17.9659 126.315 16.4545C126.315 14.875 126.56 13.5909 127.048 12.6022C127.543 11.6136 128.179 10.8892 128.957 10.4289C129.741 9.96871 130.565 9.73859 131.429 9.73859C132.077 9.73859 132.645 9.85223 133.134 10.0795C133.622 10.3011 134.031 10.5994 134.361 10.9744C134.69 11.3437 134.94 11.75 135.111 12.1931H135.179V5.54541H139.884V23H135.213V20.8522H135.111C134.929 21.2954 134.668 21.6931 134.327 22.0454C133.991 22.392 133.582 22.6676 133.099 22.8721C132.622 23.071 132.077 23.1704 131.463 23.1704ZM133.202 19.5568C133.634 19.5568 134.003 19.4318 134.31 19.1818C134.622 18.9261 134.861 18.5681 135.026 18.1079C135.196 17.642 135.281 17.0909 135.281 16.4545C135.281 15.8068 135.196 15.2528 135.026 14.7926C134.861 14.3267 134.622 13.9715 134.31 13.7272C134.003 13.4772 133.634 13.3522 133.202 13.3522C132.77 13.3522 132.401 13.4772 132.094 13.7272C131.793 13.9715 131.56 14.3267 131.395 14.7926C131.236 15.2528 131.156 15.8068 131.156 16.4545C131.156 17.1022 131.236 17.659 131.395 18.125C131.56 18.5852 131.793 18.9403 132.094 19.1903C132.401 19.4346 132.77 19.5568 133.202 19.5568Z" fill="black"/>
<path d="M1.33594 34.5454H7.23366L11.2905 44.4318H11.495L15.5518 34.5454H21.4496V52H16.8132V41.909H16.6768L12.7905 51.8636H9.99503L6.10866 41.8409H5.9723V52H1.33594V34.5454Z" fill="black"/>
<path d="M32.2521 46.2727V38.909H36.9567V52H32.4908V49.5113H32.3544C32.0703 50.3465 31.5732 51 30.8629 51.4715C30.1527 51.9375 29.3089 52.1704 28.3317 52.1704C27.4169 52.1704 26.6158 51.9602 25.9283 51.5397C25.2464 51.1193 24.7152 50.5397 24.3345 49.8011C23.9595 49.0625 23.7692 48.2159 23.7635 47.2613V38.909H28.468V46.2727C28.4737 46.9204 28.6385 47.4289 28.9624 47.7982C29.2919 48.1676 29.7521 48.3522 30.343 48.3522C30.7351 48.3522 31.0732 48.2698 31.3572 48.1051C31.647 47.9346 31.8686 47.696 32.022 47.3892C32.1811 47.0767 32.2578 46.7045 32.2521 46.2727Z" fill="black"/>
<path d="M51.3153 43.1704H46.9858C46.9631 42.9034 46.8693 42.6732 46.7045 42.4801C46.5398 42.2869 46.3267 42.1392 46.0653 42.0369C45.8097 41.9289 45.5256 41.875 45.2131 41.875C44.8097 41.875 44.4631 41.9488 44.1733 42.0965C43.8835 42.2443 43.7415 42.4545 43.7472 42.7272C43.7415 42.9204 43.8239 43.0994 43.9943 43.2642C44.1705 43.4289 44.5085 43.5568 45.0085 43.6477L47.6676 44.125C49.0085 44.3693 50.0057 44.7812 50.6591 45.3607C51.3182 45.9346 51.6506 46.7045 51.6562 47.6704C51.6506 48.6022 51.3722 49.4119 50.821 50.0994C50.2756 50.7812 49.5284 51.3096 48.5795 51.6846C47.6364 52.0539 46.5597 52.2386 45.3494 52.2386C43.3494 52.2386 41.7841 51.8295 40.6534 51.0113C39.5284 50.1931 38.9006 49.1136 38.7699 47.7727H43.4403C43.5028 48.1875 43.7074 48.5085 44.054 48.7357C44.4062 48.9573 44.8494 49.0681 45.3835 49.0681C45.8153 49.0681 46.1705 48.9943 46.4489 48.8465C46.733 48.6988 46.8778 48.4886 46.8835 48.2159C46.8778 47.9659 46.7528 47.767 46.5085 47.6193C46.2699 47.4715 45.8949 47.3522 45.3835 47.2613L43.0653 46.8522C41.7301 46.6193 40.7301 46.1761 40.0653 45.5227C39.4006 44.8693 39.071 44.0284 39.0767 43C39.071 42.0909 39.3097 41.321 39.7926 40.6903C40.2812 40.0539 40.9773 39.571 41.8807 39.2414C42.7898 38.9062 43.8665 38.7386 45.1108 38.7386C47.0028 38.7386 48.4943 39.1306 49.5852 39.9147C50.6818 40.6988 51.2585 41.784 51.3153 43.1704Z" fill="black"/>
<path d="M53.4588 52V38.909H58.1633V52H53.4588ZM55.8111 37.5454C55.1747 37.5454 54.6293 37.3352 54.1747 36.9147C53.7202 36.4943 53.4929 35.9886 53.4929 35.3977C53.4929 34.8068 53.7202 34.3011 54.1747 33.8806C54.6293 33.4602 55.1747 33.25 55.8111 33.25C56.4531 33.25 56.9986 33.4602 57.4474 33.8806C57.902 34.3011 58.1293 34.8068 58.1293 35.3977C58.1293 35.9886 57.902 36.4943 57.4474 36.9147C56.9986 37.3352 56.4531 37.5454 55.8111 37.5454Z" fill="black"/>
<path d="M66.8672 52.2386C65.4467 52.2386 64.2308 51.9573 63.2195 51.3948C62.2081 50.8267 61.4325 50.0369 60.8928 49.0255C60.353 48.0085 60.0831 46.8295 60.0831 45.4886C60.0831 44.1477 60.353 42.9715 60.8928 41.9602C61.4325 40.9431 62.2081 40.1534 63.2195 39.5909C64.2308 39.0227 65.4467 38.7386 66.8672 38.7386C68.1513 38.7386 69.2621 38.9715 70.1996 39.4375C71.1428 39.8977 71.8729 40.5511 72.3899 41.3977C72.907 42.2386 73.1683 43.2272 73.174 44.3636H68.8104C68.7479 43.6761 68.549 43.1534 68.2138 42.7954C67.8842 42.4318 67.4581 42.25 66.9354 42.25C66.5263 42.25 66.1683 42.3693 65.8615 42.6079C65.5547 42.8409 65.316 43.196 65.1456 43.6732C64.9751 44.1448 64.8899 44.7386 64.8899 45.4545C64.8899 46.1704 64.9751 46.767 65.1456 47.2443C65.316 47.7159 65.5547 48.071 65.8615 48.3096C66.1683 48.5426 66.5263 48.659 66.9354 48.659C67.282 48.659 67.5888 48.5795 67.8558 48.4204C68.1229 48.2556 68.3388 48.017 68.5035 47.7045C68.674 47.3863 68.7763 47 68.8104 46.5454H73.174C73.157 47.6988 72.8927 48.7045 72.3814 49.5625C71.87 50.4147 71.1456 51.0738 70.2081 51.5397C69.2763 52.0056 68.1626 52.2386 66.8672 52.2386Z" fill="black"/>
<path d="M91.1633 40.3068C91.0895 40.0056 90.973 39.7414 90.8139 39.5142C90.6548 39.2812 90.456 39.0852 90.2173 38.9261C89.9844 38.7613 89.7116 38.6392 89.3991 38.5596C89.0923 38.4744 88.7543 38.4318 88.3849 38.4318C87.5895 38.4318 86.9105 38.6221 86.348 39.0028C85.7912 39.3835 85.365 39.9318 85.0696 40.6477C84.7798 41.3636 84.6349 42.2272 84.6349 43.2386C84.6349 44.2613 84.7741 45.1363 85.0526 45.8636C85.331 46.5909 85.7457 47.1477 86.2969 47.534C86.848 47.9204 87.5327 48.1136 88.3508 48.1136C89.0724 48.1136 89.6719 48.0085 90.1491 47.7982C90.6321 47.588 90.9929 47.2897 91.2315 46.9034C91.4702 46.517 91.5895 46.0625 91.5895 45.5397L92.4077 45.625H88.419V42.25H96.1577V44.6704C96.1577 46.2613 95.8196 47.6221 95.1435 48.7528C94.473 49.8778 93.5469 50.7414 92.3651 51.3437C91.1889 51.9403 89.8395 52.2386 88.3168 52.2386C86.6179 52.2386 85.1264 51.8778 83.8423 51.1562C82.5582 50.4346 81.5554 49.4062 80.8338 48.071C80.1179 46.7357 79.7599 45.1477 79.7599 43.3068C79.7599 41.8636 79.9787 40.5852 80.4162 39.4715C80.8594 38.3579 81.473 37.4176 82.2571 36.6505C83.0412 35.8778 83.9474 35.2954 84.9758 34.9034C86.0043 34.5056 87.1065 34.3068 88.2827 34.3068C89.3168 34.3068 90.277 34.4545 91.1633 34.75C92.0554 35.0397 92.8423 35.4545 93.5241 35.9943C94.2116 36.5284 94.7656 37.1619 95.1861 37.8948C95.6065 38.6278 95.8622 39.4318 95.9531 40.3068H91.1633Z" fill="black"/>
<path d="M104.708 52.2386C103.31 52.2386 102.106 51.9715 101.094 51.4375C100.089 50.8977 99.3132 50.125 98.7678 49.1193C98.228 48.1079 97.9581 46.8977 97.9581 45.4886C97.9581 44.1363 98.2308 42.9545 98.7763 41.9431C99.3217 40.9318 100.092 40.1448 101.086 39.5823C102.08 39.0198 103.254 38.7386 104.606 38.7386C105.594 38.7386 106.489 38.892 107.29 39.1988C108.092 39.5056 108.776 39.9517 109.344 40.5369C109.913 41.1164 110.35 41.821 110.657 42.6505C110.964 43.4801 111.117 44.4147 111.117 45.4545V46.5454H99.424V43.9545H106.788C106.782 43.5795 106.685 43.25 106.498 42.9659C106.316 42.6761 106.069 42.4517 105.756 42.2926C105.45 42.1278 105.1 42.0454 104.708 42.0454C104.327 42.0454 103.978 42.1278 103.66 42.2926C103.342 42.4517 103.086 42.6732 102.893 42.9573C102.705 43.2414 102.606 43.5738 102.594 43.9545V46.75C102.594 47.1704 102.683 47.5454 102.859 47.875C103.035 48.2045 103.288 48.463 103.617 48.6505C103.947 48.838 104.344 48.9318 104.81 48.9318C105.134 48.9318 105.43 48.8863 105.697 48.7954C105.969 48.7045 106.202 48.5738 106.396 48.4034C106.589 48.2272 106.731 48.017 106.822 47.7727H111.117C110.969 48.6818 110.62 49.4715 110.069 50.142C109.518 50.8068 108.788 51.3238 107.879 51.6931C106.975 52.0568 105.918 52.2386 104.708 52.2386Z" fill="black"/>
<path d="M119.31 52.2386C117.912 52.2386 116.707 51.9715 115.696 51.4375C114.69 50.8977 113.915 50.125 113.369 49.1193C112.83 48.1079 112.56 46.8977 112.56 45.4886C112.56 44.1363 112.832 42.9545 113.378 41.9431C113.923 40.9318 114.693 40.1448 115.687 39.5823C116.682 39.0198 117.855 38.7386 119.207 38.7386C120.196 38.7386 121.091 38.892 121.892 39.1988C122.693 39.5056 123.378 39.9517 123.946 40.5369C124.514 41.1164 124.952 41.821 125.259 42.6505C125.565 43.4801 125.719 44.4147 125.719 45.4545V46.5454H114.026V43.9545H121.389C121.384 43.5795 121.287 43.25 121.099 42.9659C120.918 42.6761 120.67 42.4517 120.358 42.2926C120.051 42.1278 119.702 42.0454 119.31 42.0454C118.929 42.0454 118.58 42.1278 118.261 42.2926C117.943 42.4517 117.687 42.6732 117.494 42.9573C117.307 43.2414 117.207 43.5738 117.196 43.9545V46.75C117.196 47.1704 117.284 47.5454 117.46 47.875C117.636 48.2045 117.889 48.463 118.219 48.6505C118.548 48.838 118.946 48.9318 119.412 48.9318C119.736 48.9318 120.031 48.8863 120.298 48.7954C120.571 48.7045 120.804 48.5738 120.997 48.4034C121.19 48.2272 121.332 48.017 121.423 47.7727H125.719C125.571 48.6818 125.222 49.4715 124.67 50.142C124.119 50.8068 123.389 51.3238 122.48 51.6931C121.577 52.0568 120.52 52.2386 119.31 52.2386Z" fill="black"/>
<path d="M131.866 48.8977L131.9 43.3068H132.513L135.684 38.909H140.968L135.65 45.7613H134.32L131.866 48.8977ZM127.638 52V34.5454H132.343V52H127.638ZM135.718 52L132.718 46.8181L135.786 43.4772L141.104 52H135.718Z" fill="black"/>
<path d="M73.8537 19L68.706 1.54541H73.9901L76.3764 12.284H76.5128L79.3423 1.54541H83.5014L86.331 12.3181H86.4673L88.8537 1.54541H94.1378L88.9901 19H84.456L81.4901 9.24996H81.3537L78.3878 19H73.8537Z" fill="white"/>
<path d="M100.523 19.2386C99.103 19.2386 97.8871 18.9573 96.8757 18.3948C95.8643 17.8267 95.0888 17.0369 94.549 16.0255C94.0092 15.0085 93.7393 13.8295 93.7393 12.4886C93.7393 11.1477 94.0092 9.97155 94.549 8.96018C95.0888 7.94314 95.8643 7.15336 96.8757 6.59086C97.8871 6.02268 99.103 5.73859 100.523 5.73859C101.944 5.73859 103.16 6.02268 104.171 6.59086C105.183 7.15336 105.958 7.94314 106.498 8.96018C107.038 9.97155 107.308 11.1477 107.308 12.4886C107.308 13.8295 107.038 15.0085 106.498 16.0255C105.958 17.0369 105.183 17.8267 104.171 18.3948C103.16 18.9573 101.944 19.2386 100.523 19.2386ZM100.558 15.7613C100.955 15.7613 101.299 15.6278 101.589 15.3608C101.879 15.0937 102.103 14.713 102.262 14.2187C102.421 13.7244 102.501 13.1363 102.501 12.4545C102.501 11.767 102.421 11.1789 102.262 10.6903C102.103 10.196 101.879 9.8153 101.589 9.54825C101.299 9.28121 100.955 9.14768 100.558 9.14768C100.137 9.14768 99.7763 9.28121 99.4751 9.54825C99.174 9.8153 98.9439 10.196 98.7848 10.6903C98.6257 11.1789 98.5462 11.767 98.5462 12.4545C98.5462 13.1363 98.6257 13.7244 98.7848 14.2187C98.9439 14.713 99.174 15.0937 99.4751 15.3608C99.7763 15.6278 100.137 15.7613 100.558 15.7613Z" fill="white"/>
<path d="M109.217 19V5.90905H113.785V8.39768H113.921C114.16 7.47723 114.538 6.80393 115.055 6.3778C115.577 5.95166 116.188 5.73859 116.887 5.73859C117.092 5.73859 117.293 5.75564 117.492 5.78973C117.697 5.81814 117.893 5.86075 118.08 5.91757V9.93177C117.847 9.85223 117.56 9.79257 117.219 9.7528C116.879 9.71302 116.586 9.69314 116.342 9.69314C115.881 9.69314 115.467 9.79825 115.097 10.0085C114.734 10.213 114.447 10.5028 114.236 10.8778C114.026 11.2471 113.921 11.6818 113.921 12.1818V19H109.217Z" fill="white"/>
<path d="M124.327 1.54541V19H119.623V1.54541H124.327Z" fill="white"/>
<path d="M131.463 19.1704C130.531 19.1704 129.673 18.9261 128.889 18.4375C128.111 17.9488 127.486 17.2073 127.014 16.213C126.548 15.2187 126.315 13.9659 126.315 12.4545C126.315 10.875 126.56 9.59086 127.048 8.60223C127.543 7.61359 128.179 6.88916 128.957 6.42893C129.741 5.96871 130.565 5.73859 131.429 5.73859C132.077 5.73859 132.645 5.85223 133.134 6.0795C133.622 6.30109 134.031 6.59939 134.361 6.97439C134.69 7.34371 134.94 7.74996 135.111 8.19314H135.179V1.54541L139.884 1.54541V19H135.213V16.8522H135.111C134.929 17.2954 134.668 17.6931 134.327 18.0454C133.991 18.392 133.582 18.6676 133.099 18.8721C132.622 19.071 132.077 19.1704 131.463 19.1704ZM133.202 15.5568C133.634 15.5568 134.003 15.4318 134.31 15.1818C134.622 14.9261 134.861 14.5681 135.026 14.1079C135.196 13.642 135.281 13.0909 135.281 12.4545C135.281 11.8068 135.196 11.2528 135.026 10.7926C134.861 10.3267 134.622 9.97155 134.31 9.72723C134.003 9.47723 133.634 9.35223 133.202 9.35223C132.77 9.35223 132.401 9.47723 132.094 9.72723C131.793 9.97155 131.56 10.3267 131.395 10.7926C131.236 11.2528 131.156 11.8068 131.156 12.4545C131.156 13.1022 131.236 13.659 131.395 14.125C131.56 14.5852 131.793 14.9403 132.094 15.1903C132.401 15.4346 132.77 15.5568 133.202 15.5568Z" fill="white"/>
<path d="M1.33594 30.5454H7.23366L11.2905 40.4318H11.495L15.5518 30.5454H21.4496V48H16.8132V37.909H16.6768L12.7905 47.8636H9.99503L6.10866 37.8409H5.9723V48H1.33594V30.5454Z" fill="white"/>
<path d="M32.2521 42.2727V34.909H36.9567V48H32.4908V45.5113H32.3544C32.0703 46.3465 31.5732 47 30.8629 47.4715C30.1527 47.9375 29.3089 48.1704 28.3317 48.1704C27.4169 48.1704 26.6158 47.9602 25.9283 47.5397C25.2464 47.1193 24.7152 46.5397 24.3345 45.8011C23.9595 45.0625 23.7692 44.2159 23.7635 43.2613V34.909H28.468V42.2727C28.4737 42.9204 28.6385 43.4289 28.9624 43.7982C29.2919 44.1676 29.7521 44.3522 30.343 44.3522C30.7351 44.3522 31.0732 44.2698 31.3572 44.1051C31.647 43.9346 31.8686 43.696 32.022 43.3892C32.1811 43.0767 32.2578 42.7045 32.2521 42.2727Z" fill="white"/>
<path d="M51.3153 39.1704H46.9858C46.9631 38.9034 46.8693 38.6732 46.7045 38.4801C46.5398 38.2869 46.3267 38.1392 46.0653 38.0369C45.8097 37.9289 45.5256 37.875 45.2131 37.875C44.8097 37.875 44.4631 37.9488 44.1733 38.0965C43.8835 38.2443 43.7415 38.4545 43.7472 38.7272C43.7415 38.9204 43.8239 39.0994 43.9943 39.2642C44.1705 39.4289 44.5085 39.5568 45.0085 39.6477L47.6676 40.125C49.0085 40.3693 50.0057 40.7812 50.6591 41.3607C51.3182 41.9346 51.6506 42.7045 51.6562 43.6704C51.6506 44.6022 51.3722 45.4119 50.821 46.0994C50.2756 46.7812 49.5284 47.3096 48.5795 47.6846C47.6364 48.0539 46.5597 48.2386 45.3494 48.2386C43.3494 48.2386 41.7841 47.8295 40.6534 47.0113C39.5284 46.1931 38.9006 45.1136 38.7699 43.7727H43.4403C43.5028 44.1875 43.7074 44.5085 44.054 44.7357C44.4062 44.9573 44.8494 45.0681 45.3835 45.0681C45.8153 45.0681 46.1705 44.9943 46.4489 44.8465C46.733 44.6988 46.8778 44.4886 46.8835 44.2159C46.8778 43.9659 46.7528 43.767 46.5085 43.6193C46.2699 43.4715 45.8949 43.3522 45.3835 43.2613L43.0653 42.8522C41.7301 42.6193 40.7301 42.1761 40.0653 41.5227C39.4006 40.8693 39.071 40.0284 39.0767 39C39.071 38.0909 39.3097 37.321 39.7926 36.6903C40.2812 36.0539 40.9773 35.571 41.8807 35.2414C42.7898 34.9062 43.8665 34.7386 45.1108 34.7386C47.0028 34.7386 48.4943 35.1306 49.5852 35.9147C50.6818 36.6988 51.2585 37.784 51.3153 39.1704Z" fill="white"/>
<path d="M53.4588 48V34.909H58.1633V48H53.4588ZM55.8111 33.5454C55.1747 33.5454 54.6293 33.3352 54.1747 32.9147C53.7202 32.4943 53.4929 31.9886 53.4929 31.3977C53.4929 30.8068 53.7202 30.3011 54.1747 29.8806C54.6293 29.4602 55.1747 29.25 55.8111 29.25C56.4531 29.25 56.9986 29.4602 57.4474 29.8806C57.902 30.3011 58.1293 30.8068 58.1293 31.3977C58.1293 31.9886 57.902 32.4943 57.4474 32.9147C56.9986 33.3352 56.4531 33.5454 55.8111 33.5454Z" fill="white"/>
<path d="M66.8672 48.2386C65.4467 48.2386 64.2308 47.9573 63.2195 47.3948C62.2081 46.8267 61.4325 46.0369 60.8928 45.0255C60.353 44.0085 60.0831 42.8295 60.0831 41.4886C60.0831 40.1477 60.353 38.9715 60.8928 37.9602C61.4325 36.9431 62.2081 36.1534 63.2195 35.5909C64.2308 35.0227 65.4467 34.7386 66.8672 34.7386C68.1513 34.7386 69.2621 34.9715 70.1996 35.4375C71.1428 35.8977 71.8729 36.5511 72.3899 37.3977C72.907 38.2386 73.1683 39.2272 73.174 40.3636H68.8104C68.7479 39.6761 68.549 39.1534 68.2138 38.7954C67.8842 38.4318 67.4581 38.25 66.9354 38.25C66.5263 38.25 66.1683 38.3693 65.8615 38.6079C65.5547 38.8409 65.316 39.196 65.1456 39.6732C64.9751 40.1448 64.8899 40.7386 64.8899 41.4545C64.8899 42.1704 64.9751 42.767 65.1456 43.2443C65.316 43.7159 65.5547 44.071 65.8615 44.3096C66.1683 44.5426 66.5263 44.659 66.9354 44.659C67.282 44.659 67.5888 44.5795 67.8558 44.4204C68.1229 44.2556 68.3388 44.017 68.5035 43.7045C68.674 43.3863 68.7763 43 68.8104 42.5454H73.174C73.157 43.6988 72.8927 44.7045 72.3814 45.5625C71.87 46.4147 71.1456 47.0738 70.2081 47.5397C69.2763 48.0056 68.1626 48.2386 66.8672 48.2386Z" fill="white"/>
<path d="M91.1633 36.3068C91.0895 36.0056 90.973 35.7414 90.8139 35.5142C90.6548 35.2812 90.456 35.0852 90.2173 34.9261C89.9844 34.7613 89.7116 34.6392 89.3991 34.5596C89.0923 34.4744 88.7543 34.4318 88.3849 34.4318C87.5895 34.4318 86.9105 34.6221 86.348 35.0028C85.7912 35.3835 85.365 35.9318 85.0696 36.6477C84.7798 37.3636 84.6349 38.2272 84.6349 39.2386C84.6349 40.2613 84.7741 41.1363 85.0526 41.8636C85.331 42.5909 85.7457 43.1477 86.2969 43.534C86.848 43.9204 87.5327 44.1136 88.3508 44.1136C89.0724 44.1136 89.6719 44.0085 90.1491 43.7982C90.6321 43.588 90.9929 43.2897 91.2315 42.9034C91.4702 42.517 91.5895 42.0625 91.5895 41.5397L92.4077 41.625H88.419V38.25H96.1577V40.6704C96.1577 42.2613 95.8196 43.6221 95.1435 44.7528C94.473 45.8778 93.5469 46.7414 92.3651 47.3437C91.1889 47.9403 89.8395 48.2386 88.3168 48.2386C86.6179 48.2386 85.1264 47.8778 83.8423 47.1562C82.5582 46.4346 81.5554 45.4062 80.8338 44.071C80.1179 42.7357 79.7599 41.1477 79.7599 39.3068C79.7599 37.8636 79.9787 36.5852 80.4162 35.4715C80.8594 34.3579 81.473 33.4176 82.2571 32.6505C83.0412 31.8778 83.9474 31.2954 84.9758 30.9034C86.0043 30.5056 87.1065 30.3068 88.2827 30.3068C89.3168 30.3068 90.277 30.4545 91.1633 30.75C92.0554 31.0397 92.8423 31.4545 93.5241 31.9943C94.2116 32.5284 94.7656 33.1619 95.1861 33.8948C95.6065 34.6278 95.8622 35.4318 95.9531 36.3068H91.1633Z" fill="white"/>
<path d="M104.708 48.2386C103.31 48.2386 102.106 47.9715 101.094 47.4375C100.089 46.8977 99.3132 46.125 98.7678 45.1193C98.228 44.1079 97.9581 42.8977 97.9581 41.4886C97.9581 40.1363 98.2308 38.9545 98.7763 37.9431C99.3217 36.9318 100.092 36.1448 101.086 35.5823C102.08 35.0198 103.254 34.7386 104.606 34.7386C105.594 34.7386 106.489 34.892 107.29 35.1988C108.092 35.5056 108.776 35.9517 109.344 36.5369C109.913 37.1164 110.35 37.821 110.657 38.6505C110.964 39.4801 111.117 40.4147 111.117 41.4545V42.5454H99.424V39.9545H106.788C106.782 39.5795 106.685 39.25 106.498 38.9659C106.316 38.6761 106.069 38.4517 105.756 38.2926C105.45 38.1278 105.1 38.0454 104.708 38.0454C104.327 38.0454 103.978 38.1278 103.66 38.2926C103.342 38.4517 103.086 38.6732 102.893 38.9573C102.705 39.2414 102.606 39.5738 102.594 39.9545V42.75C102.594 43.1704 102.683 43.5454 102.859 43.875C103.035 44.2045 103.288 44.463 103.617 44.6505C103.947 44.838 104.344 44.9318 104.81 44.9318C105.134 44.9318 105.43 44.8863 105.697 44.7954C105.969 44.7045 106.202 44.5738 106.396 44.4034C106.589 44.2272 106.731 44.017 106.822 43.7727H111.117C110.969 44.6818 110.62 45.4715 110.069 46.142C109.518 46.8068 108.788 47.3238 107.879 47.6931C106.975 48.0568 105.918 48.2386 104.708 48.2386Z" fill="white"/>
<path d="M119.31 48.2386C117.912 48.2386 116.707 47.9715 115.696 47.4375C114.69 46.8977 113.915 46.125 113.369 45.1193C112.83 44.1079 112.56 42.8977 112.56 41.4886C112.56 40.1363 112.832 38.9545 113.378 37.9431C113.923 36.9318 114.693 36.1448 115.687 35.5823C116.682 35.0198 117.855 34.7386 119.207 34.7386C120.196 34.7386 121.091 34.892 121.892 35.1988C122.693 35.5056 123.378 35.9517 123.946 36.5369C124.514 37.1164 124.952 37.821 125.259 38.6505C125.565 39.4801 125.719 40.4147 125.719 41.4545V42.5454H114.026V39.9545H121.389C121.384 39.5795 121.287 39.25 121.099 38.9659C120.918 38.6761 120.67 38.4517 120.358 38.2926C120.051 38.1278 119.702 38.0454 119.31 38.0454C118.929 38.0454 118.58 38.1278 118.261 38.2926C117.943 38.4517 117.687 38.6732 117.494 38.9573C117.307 39.2414 117.207 39.5738 117.196 39.9545V42.75C117.196 43.1704 117.284 43.5454 117.46 43.875C117.636 44.2045 117.889 44.463 118.219 44.6505C118.548 44.838 118.946 44.9318 119.412 44.9318C119.736 44.9318 120.031 44.8863 120.298 44.7954C120.571 44.7045 120.804 44.5738 120.997 44.4034C121.19 44.2272 121.332 44.017 121.423 43.7727H125.719C125.571 44.6818 125.222 45.4715 124.67 46.142C124.119 46.8068 123.389 47.3238 122.48 47.6931C121.577 48.0568 120.52 48.2386 119.31 48.2386Z" fill="white"/>
<path d="M131.866 44.8977L131.9 39.3068H132.513L135.684 34.909H140.968L135.65 41.7613H134.32L131.866 44.8977ZM127.638 48V30.5454H132.343V48H127.638ZM135.718 48L132.718 42.8181L135.786 39.4772L141.104 48H135.718Z" fill="white"/>
<path d="M73.8537 23L68.706 5.54541H73.9901L76.3764 16.284H76.5128L79.3423 5.54541H83.5014L86.331 16.3181H86.4673L88.8537 5.54541H94.1378L88.9901 23H84.456L81.4901 13.25H81.3537L78.3878 23H73.8537Z" stroke="black" stroke-width="2" mask="url(#path-1-outside-1_1002_192)"/>
<path d="M100.523 23.2386C99.103 23.2386 97.8871 22.9573 96.8757 22.3948C95.8643 21.8267 95.0888 21.0369 94.549 20.0255C94.0092 19.0085 93.7393 17.8295 93.7393 16.4886C93.7393 15.1477 94.0092 13.9715 94.549 12.9602C95.0888 11.9431 95.8643 11.1534 96.8757 10.5909C97.8871 10.0227 99.103 9.73859 100.523 9.73859C101.944 9.73859 103.16 10.0227 104.171 10.5909C105.183 11.1534 105.958 11.9431 106.498 12.9602C107.038 13.9715 107.308 15.1477 107.308 16.4886C107.308 17.8295 107.038 19.0085 106.498 20.0255C105.958 21.0369 105.183 21.8267 104.171 22.3948C103.16 22.9573 101.944 23.2386 100.523 23.2386ZM100.558 19.7613C100.955 19.7613 101.299 19.6278 101.589 19.3608C101.879 19.0937 102.103 18.713 102.262 18.2187C102.421 17.7244 102.501 17.1363 102.501 16.4545C102.501 15.767 102.421 15.1789 102.262 14.6903C102.103 14.196 101.879 13.8153 101.589 13.5483C101.299 13.2812 100.955 13.1477 100.558 13.1477C100.137 13.1477 99.7763 13.2812 99.4751 13.5483C99.174 13.8153 98.9439 14.196 98.7848 14.6903C98.6257 15.1789 98.5462 15.767 98.5462 16.4545C98.5462 17.1363 98.6257 17.7244 98.7848 18.2187C98.9439 18.713 99.174 19.0937 99.4751 19.3608C99.7763 19.6278 100.137 19.7613 100.558 19.7613Z" stroke="black" stroke-width="2" mask="url(#path-1-outside-1_1002_192)"/>
<path d="M109.217 23V9.90905H113.785V12.3977H113.921C114.16 11.4772 114.538 10.8039 115.055 10.3778C115.577 9.95166 116.188 9.73859 116.887 9.73859C117.092 9.73859 117.293 9.75564 117.492 9.78973C117.697 9.81814 117.893 9.86075 118.08 9.91757V13.9318C117.847 13.8522 117.56 13.7926 117.219 13.7528C116.879 13.713 116.586 13.6931 116.342 13.6931C115.881 13.6931 115.467 13.7983 115.097 14.0085C114.734 14.213 114.447 14.5028 114.236 14.8778C114.026 15.2471 113.921 15.6818 113.921 16.1818V23H109.217Z" stroke="black" stroke-width="2" mask="url(#path-1-outside-1_1002_192)"/>
<path d="M124.327 5.54541V23H119.623V5.54541H124.327Z" stroke="black" stroke-width="2" mask="url(#path-1-outside-1_1002_192)"/>
<path d="M131.463 23.1704C130.531 23.1704 129.673 22.9261 128.889 22.4375C128.111 21.9488 127.486 21.2073 127.014 20.213C126.548 19.2187 126.315 17.9659 126.315 16.4545C126.315 14.875 126.56 13.5909 127.048 12.6022C127.543 11.6136 128.179 10.8892 128.957 10.4289C129.741 9.96871 130.565 9.73859 131.429 9.73859C132.077 9.73859 132.645 9.85223 133.134 10.0795C133.622 10.3011 134.031 10.5994 134.361 10.9744C134.69 11.3437 134.94 11.75 135.111 12.1931H135.179V5.54541H139.884V23H135.213V20.8522H135.111C134.929 21.2954 134.668 21.6931 134.327 22.0454C133.991 22.392 133.582 22.6676 133.099 22.8721C132.622 23.071 132.077 23.1704 131.463 23.1704ZM133.202 19.5568C133.634 19.5568 134.003 19.4318 134.31 19.1818C134.622 18.9261 134.861 18.5681 135.026 18.1079C135.196 17.642 135.281 17.0909 135.281 16.4545C135.281 15.8068 135.196 15.2528 135.026 14.7926C134.861 14.3267 134.622 13.9715 134.31 13.7272C134.003 13.4772 133.634 13.3522 133.202 13.3522C132.77 13.3522 132.401 13.4772 132.094 13.7272C131.793 13.9715 131.56 14.3267 131.395 14.7926C131.236 15.2528 131.156 15.8068 131.156 16.4545C131.156 17.1022 131.236 17.659 131.395 18.125C131.56 18.5852 131.793 18.9403 132.094 19.1903C132.401 19.4346 132.77 19.5568 133.202 19.5568Z" stroke="black" stroke-width="2" mask="url(#path-1-outside-1_1002_192)"/>
<path d="M1.33594 34.5454H7.23366L11.2905 44.4318H11.495L15.5518 34.5454H21.4496V52H16.8132V41.909H16.6768L12.7905 51.8636H9.99503L6.10866 41.8409H5.9723V52H1.33594V34.5454Z" stroke="black" stroke-width="2" mask="url(#path-1-outside-1_1002_192)"/>
<path d="M32.2521 46.2727V38.909H36.9567V52H32.4908V49.5113H32.3544C32.0703 50.3465 31.5732 51 30.8629 51.4715C30.1527 51.9375 29.3089 52.1704 28.3317 52.1704C27.4169 52.1704 26.6158 51.9602 25.9283 51.5397C25.2464 51.1193 24.7152 50.5397 24.3345 49.8011C23.9595 49.0625 23.7692 48.2159 23.7635 47.2613V38.909H28.468V46.2727C28.4737 46.9204 28.6385 47.4289 28.9624 47.7982C29.2919 48.1676 29.7521 48.3522 30.343 48.3522C30.7351 48.3522 31.0732 48.2698 31.3572 48.1051C31.647 47.9346 31.8686 47.696 32.022 47.3892C32.1811 47.0767 32.2578 46.7045 32.2521 46.2727Z" stroke="black" stroke-width="2" mask="url(#path-1-outside-1_1002_192)"/>
<path d="M51.3153 43.1704H46.9858C46.9631 42.9034 46.8693 42.6732 46.7045 42.4801C46.5398 42.2869 46.3267 42.1392 46.0653 42.0369C45.8097 41.9289 45.5256 41.875 45.2131 41.875C44.8097 41.875 44.4631 41.9488 44.1733 42.0965C43.8835 42.2443 43.7415 42.4545 43.7472 42.7272C43.7415 42.9204 43.8239 43.0994 43.9943 43.2642C44.1705 43.4289 44.5085 43.5568 45.0085 43.6477L47.6676 44.125C49.0085 44.3693 50.0057 44.7812 50.6591 45.3607C51.3182 45.9346 51.6506 46.7045 51.6562 47.6704C51.6506 48.6022 51.3722 49.4119 50.821 50.0994C50.2756 50.7812 49.5284 51.3096 48.5795 51.6846C47.6364 52.0539 46.5597 52.2386 45.3494 52.2386C43.3494 52.2386 41.7841 51.8295 40.6534 51.0113C39.5284 50.1931 38.9006 49.1136 38.7699 47.7727H43.4403C43.5028 48.1875 43.7074 48.5085 44.054 48.7357C44.4062 48.9573 44.8494 49.0681 45.3835 49.0681C45.8153 49.0681 46.1705 48.9943 46.4489 48.8465C46.733 48.6988 46.8778 48.4886 46.8835 48.2159C46.8778 47.9659 46.7528 47.767 46.5085 47.6193C46.2699 47.4715 45.8949 47.3522 45.3835 47.2613L43.0653 46.8522C41.7301 46.6193 40.7301 46.1761 40.0653 45.5227C39.4006 44.8693 39.071 44.0284 39.0767 43C39.071 42.0909 39.3097 41.321 39.7926 40.6903C40.2812 40.0539 40.9773 39.571 41.8807 39.2414C42.7898 38.9062 43.8665 38.7386 45.1108 38.7386C47.0028 38.7386 48.4943 39.1306 49.5852 39.9147C50.6818 40.6988 51.2585 41.784 51.3153 43.1704Z" stroke="black" stroke-width="2" mask="url(#path-1-outside-1_1002_192)"/>
<path d="M53.4588 52V38.909H58.1633V52H53.4588ZM55.8111 37.5454C55.1747 37.5454 54.6293 37.3352 54.1747 36.9147C53.7202 36.4943 53.4929 35.9886 53.4929 35.3977C53.4929 34.8068 53.7202 34.3011 54.1747 33.8806C54.6293 33.4602 55.1747 33.25 55.8111 33.25C56.4531 33.25 56.9986 33.4602 57.4474 33.8806C57.902 34.3011 58.1293 34.8068 58.1293 35.3977C58.1293 35.9886 57.902 36.4943 57.4474 36.9147C56.9986 37.3352 56.4531 37.5454 55.8111 37.5454Z" stroke="black" stroke-width="2" mask="url(#path-1-outside-1_1002_192)"/>
<path d="M66.8672 52.2386C65.4467 52.2386 64.2308 51.9573 63.2195 51.3948C62.2081 50.8267 61.4325 50.0369 60.8928 49.0255C60.353 48.0085 60.0831 46.8295 60.0831 45.4886C60.0831 44.1477 60.353 42.9715 60.8928 41.9602C61.4325 40.9431 62.2081 40.1534 63.2195 39.5909C64.2308 39.0227 65.4467 38.7386 66.8672 38.7386C68.1513 38.7386 69.2621 38.9715 70.1996 39.4375C71.1428 39.8977 71.8729 40.5511 72.3899 41.3977C72.907 42.2386 73.1683 43.2272 73.174 44.3636H68.8104C68.7479 43.6761 68.549 43.1534 68.2138 42.7954C67.8842 42.4318 67.4581 42.25 66.9354 42.25C66.5263 42.25 66.1683 42.3693 65.8615 42.6079C65.5547 42.8409 65.316 43.196 65.1456 43.6732C64.9751 44.1448 64.8899 44.7386 64.8899 45.4545C64.8899 46.1704 64.9751 46.767 65.1456 47.2443C65.316 47.7159 65.5547 48.071 65.8615 48.3096C66.1683 48.5426 66.5263 48.659 66.9354 48.659C67.282 48.659 67.5888 48.5795 67.8558 48.4204C68.1229 48.2556 68.3388 48.017 68.5035 47.7045C68.674 47.3863 68.7763 47 68.8104 46.5454H73.174C73.157 47.6988 72.8927 48.7045 72.3814 49.5625C71.87 50.4147 71.1456 51.0738 70.2081 51.5397C69.2763 52.0056 68.1626 52.2386 66.8672 52.2386Z" stroke="black" stroke-width="2" mask="url(#path-1-outside-1_1002_192)"/>
<path d="M91.1633 40.3068C91.0895 40.0056 90.973 39.7414 90.8139 39.5142C90.6548 39.2812 90.456 39.0852 90.2173 38.9261C89.9844 38.7613 89.7116 38.6392 89.3991 38.5596C89.0923 38.4744 88.7543 38.4318 88.3849 38.4318C87.5895 38.4318 86.9105 38.6221 86.348 39.0028C85.7912 39.3835 85.365 39.9318 85.0696 40.6477C84.7798 41.3636 84.6349 42.2272 84.6349 43.2386C84.6349 44.2613 84.7741 45.1363 85.0526 45.8636C85.331 46.5909 85.7457 47.1477 86.2969 47.534C86.848 47.9204 87.5327 48.1136 88.3508 48.1136C89.0724 48.1136 89.6719 48.0085 90.1491 47.7982C90.6321 47.588 90.9929 47.2897 91.2315 46.9034C91.4702 46.517 91.5895 46.0625 91.5895 45.5397L92.4077 45.625H88.419V42.25H96.1577V44.6704C96.1577 46.2613 95.8196 47.6221 95.1435 48.7528C94.473 49.8778 93.5469 50.7414 92.3651 51.3437C91.1889 51.9403 89.8395 52.2386 88.3168 52.2386C86.6179 52.2386 85.1264 51.8778 83.8423 51.1562C82.5582 50.4346 81.5554 49.4062 80.8338 48.071C80.1179 46.7357 79.7599 45.1477 79.7599 43.3068C79.7599 41.8636 79.9787 40.5852 80.4162 39.4715C80.8594 38.3579 81.473 37.4176 82.2571 36.6505C83.0412 35.8778 83.9474 35.2954 84.9758 34.9034C86.0043 34.5056 87.1065 34.3068 88.2827 34.3068C89.3168 34.3068 90.277 34.4545 91.1633 34.75C92.0554 35.0397 92.8423 35.4545 93.5241 35.9943C94.2116 36.5284 94.7656 37.1619 95.1861 37.8948C95.6065 38.6278 95.8622 39.4318 95.9531 40.3068H91.1633Z" stroke="black" stroke-width="2" mask="url(#path-1-outside-1_1002_192)"/>
<path d="M104.708 52.2386C103.31 52.2386 102.106 51.9715 101.094 51.4375C100.089 50.8977 99.3132 50.125 98.7678 49.1193C98.228 48.1079 97.9581 46.8977 97.9581 45.4886C97.9581 44.1363 98.2308 42.9545 98.7763 41.9431C99.3217 40.9318 100.092 40.1448 101.086 39.5823C102.08 39.0198 103.254 38.7386 104.606 38.7386C105.594 38.7386 106.489 38.892 107.29 39.1988C108.092 39.5056 108.776 39.9517 109.344 40.5369C109.913 41.1164 110.35 41.821 110.657 42.6505C110.964 43.4801 111.117 44.4147 111.117 45.4545V46.5454H99.424V43.9545H106.788C106.782 43.5795 106.685 43.25 106.498 42.9659C106.316 42.6761 106.069 42.4517 105.756 42.2926C105.45 42.1278 105.1 42.0454 104.708 42.0454C104.327 42.0454 103.978 42.1278 103.66 42.2926C103.342 42.4517 103.086 42.6732 102.893 42.9573C102.705 43.2414 102.606 43.5738 102.594 43.9545V46.75C102.594 47.1704 102.683 47.5454 102.859 47.875C103.035 48.2045 103.288 48.463 103.617 48.6505C103.947 48.838 104.344 48.9318 104.81 48.9318C105.134 48.9318 105.43 48.8863 105.697 48.7954C105.969 48.7045 106.202 48.5738 106.396 48.4034C106.589 48.2272 106.731 48.017 106.822 47.7727H111.117C110.969 48.6818 110.62 49.4715 110.069 50.142C109.518 50.8068 108.788 51.3238 107.879 51.6931C106.975 52.0568 105.918 52.2386 104.708 52.2386Z" stroke="black" stroke-width="2" mask="url(#path-1-outside-1_1002_192)"/>
<path d="M119.31 52.2386C117.912 52.2386 116.707 51.9715 115.696 51.4375C114.69 50.8977 113.915 50.125 113.369 49.1193C112.83 48.1079 112.56 46.8977 112.56 45.4886C112.56 44.1363 112.832 42.9545 113.378 41.9431C113.923 40.9318 114.693 40.1448 115.687 39.5823C116.682 39.0198 117.855 38.7386 119.207 38.7386C120.196 38.7386 121.091 38.892 121.892 39.1988C122.693 39.5056 123.378 39.9517 123.946 40.5369C124.514 41.1164 124.952 41.821 125.259 42.6505C125.565 43.4801 125.719 44.4147 125.719 45.4545V46.5454H114.026V43.9545H121.389C121.384 43.5795 121.287 43.25 121.099 42.9659C120.918 42.6761 120.67 42.4517 120.358 42.2926C120.051 42.1278 119.702 42.0454 119.31 42.0454C118.929 42.0454 118.58 42.1278 118.261 42.2926C117.943 42.4517 117.687 42.6732 117.494 42.9573C117.307 43.2414 117.207 43.5738 117.196 43.9545V46.75C117.196 47.1704 117.284 47.5454 117.46 47.875C117.636 48.2045 117.889 48.463 118.219 48.6505C118.548 48.838 118.946 48.9318 119.412 48.9318C119.736 48.9318 120.031 48.8863 120.298 48.7954C120.571 48.7045 120.804 48.5738 120.997 48.4034C121.19 48.2272 121.332 48.017 121.423 47.7727H125.719C125.571 48.6818 125.222 49.4715 124.67 50.142C124.119 50.8068 123.389 51.3238 122.48 51.6931C121.577 52.0568 120.52 52.2386 119.31 52.2386Z" stroke="black" stroke-width="2" mask="url(#path-1-outside-1_1002_192)"/>
<path d="M131.866 48.8977L131.9 43.3068H132.513L135.684 38.909H140.968L135.65 45.7613H134.32L131.866 48.8977ZM127.638 52V34.5454H132.343V52H127.638ZM135.718 52L132.718 46.8181L135.786 43.4772L141.104 52H135.718Z" stroke="black" stroke-width="2" mask="url(#path-1-outside-1_1002_192)"/>
<path d="M73.8537 19L68.706 1.54541H73.9901L76.3764 12.284H76.5128L79.3423 1.54541H83.5014L86.331 12.3181H86.4673L88.8537 1.54541H94.1378L88.9901 19H84.456L81.4901 9.24996H81.3537L78.3878 19H73.8537Z" stroke="black" stroke-width="2" mask="url(#path-1-outside-1_1002_192)"/>
<path d="M100.523 19.2386C99.103 19.2386 97.8871 18.9573 96.8757 18.3948C95.8643 17.8267 95.0888 17.0369 94.549 16.0255C94.0092 15.0085 93.7393 13.8295 93.7393 12.4886C93.7393 11.1477 94.0092 9.97155 94.549 8.96018C95.0888 7.94314 95.8643 7.15336 96.8757 6.59086C97.8871 6.02268 99.103 5.73859 100.523 5.73859C101.944 5.73859 103.16 6.02268 104.171 6.59086C105.183 7.15336 105.958 7.94314 106.498 8.96018C107.038 9.97155 107.308 11.1477 107.308 12.4886C107.308 13.8295 107.038 15.0085 106.498 16.0255C105.958 17.0369 105.183 17.8267 104.171 18.3948C103.16 18.9573 101.944 19.2386 100.523 19.2386ZM100.558 15.7613C100.955 15.7613 101.299 15.6278 101.589 15.3608C101.879 15.0937 102.103 14.713 102.262 14.2187C102.421 13.7244 102.501 13.1363 102.501 12.4545C102.501 11.767 102.421 11.1789 102.262 10.6903C102.103 10.196 101.879 9.8153 101.589 9.54825C101.299 9.28121 100.955 9.14768 100.558 9.14768C100.137 9.14768 99.7763 9.28121 99.4751 9.54825C99.174 9.8153 98.9439 10.196 98.7848 10.6903C98.6257 11.1789 98.5462 11.767 98.5462 12.4545C98.5462 13.1363 98.6257 13.7244 98.7848 14.2187C98.9439 14.713 99.174 15.0937 99.4751 15.3608C99.7763 15.6278 100.137 15.7613 100.558 15.7613Z" stroke="black" stroke-width="2" mask="url(#path-1-outside-1_1002_192)"/>
<path d="M109.217 19V5.90905H113.785V8.39768H113.921C114.16 7.47723 114.538 6.80393 115.055 6.3778C115.577 5.95166 116.188 5.73859 116.887 5.73859C117.092 5.73859 117.293 5.75564 117.492 5.78973C117.697 5.81814 117.893 5.86075 118.08 5.91757V9.93177C117.847 9.85223 117.56 9.79257 117.219 9.7528C116.879 9.71302 116.586 9.69314 116.342 9.69314C115.881 9.69314 115.467 9.79825 115.097 10.0085C114.734 10.213 114.447 10.5028 114.236 10.8778C114.026 11.2471 113.921 11.6818 113.921 12.1818V19H109.217Z" stroke="black" stroke-width="2" mask="url(#path-1-outside-1_1002_192)"/>
<path d="M124.327 1.54541V19H119.623V1.54541H124.327Z" stroke="black" stroke-width="2" mask="url(#path-1-outside-1_1002_192)"/>
<path d="M131.463 19.1704C130.531 19.1704 129.673 18.9261 128.889 18.4375C128.111 17.9488 127.486 17.2073 127.014 16.213C126.548 15.2187 126.315 13.9659 126.315 12.4545C126.315 10.875 126.56 9.59086 127.048 8.60223C127.543 7.61359 128.179 6.88916 128.957 6.42893C129.741 5.96871 130.565 5.73859 131.429 5.73859C132.077 5.73859 132.645 5.85223 133.134 6.0795C133.622 6.30109 134.031 6.59939 134.361 6.97439C134.69 7.34371 134.94 7.74996 135.111 8.19314H135.179V1.54541L139.884 1.54541V19H135.213V16.8522H135.111C134.929 17.2954 134.668 17.6931 134.327 18.0454C133.991 18.392 133.582 18.6676 133.099 18.8721C132.622 19.071 132.077 19.1704 131.463 19.1704ZM133.202 15.5568C133.634 15.5568 134.003 15.4318 134.31 15.1818C134.622 14.9261 134.861 14.5681 135.026 14.1079C135.196 13.642 135.281 13.0909 135.281 12.4545C135.281 11.8068 135.196 11.2528 135.026 10.7926C134.861 10.3267 134.622 9.97155 134.31 9.72723C134.003 9.47723 133.634 9.35223 133.202 9.35223C132.77 9.35223 132.401 9.47723 132.094 9.72723C131.793 9.97155 131.56 10.3267 131.395 10.7926C131.236 11.2528 131.156 11.8068 131.156 12.4545C131.156 13.1022 131.236 13.659 131.395 14.125C131.56 14.5852 131.793 14.9403 132.094 15.1903C132.401 15.4346 132.77 15.5568 133.202 15.5568Z" stroke="black" stroke-width="2" mask="url(#path-1-outside-1_1002_192)"/>
<path d="M1.33594 30.5454H7.23366L11.2905 40.4318H11.495L15.5518 30.5454H21.4496V48H16.8132V37.909H16.6768L12.7905 47.8636H9.99503L6.10866 37.8409H5.9723V48H1.33594V30.5454Z" stroke="black" stroke-width="2" mask="url(#path-1-outside-1_1002_192)"/>
<path d="M32.2521 42.2727V34.909H36.9567V48H32.4908V45.5113H32.3544C32.0703 46.3465 31.5732 47 30.8629 47.4715C30.1527 47.9375 29.3089 48.1704 28.3317 48.1704C27.4169 48.1704 26.6158 47.9602 25.9283 47.5397C25.2464 47.1193 24.7152 46.5397 24.3345 45.8011C23.9595 45.0625 23.7692 44.2159 23.7635 43.2613V34.909H28.468V42.2727C28.4737 42.9204 28.6385 43.4289 28.9624 43.7982C29.2919 44.1676 29.7521 44.3522 30.343 44.3522C30.7351 44.3522 31.0732 44.2698 31.3572 44.1051C31.647 43.9346 31.8686 43.696 32.022 43.3892C32.1811 43.0767 32.2578 42.7045 32.2521 42.2727Z" stroke="black" stroke-width="2" mask="url(#path-1-outside-1_1002_192)"/>
<path d="M51.3153 39.1704H46.9858C46.9631 38.9034 46.8693 38.6732 46.7045 38.4801C46.5398 38.2869 46.3267 38.1392 46.0653 38.0369C45.8097 37.9289 45.5256 37.875 45.2131 37.875C44.8097 37.875 44.4631 37.9488 44.1733 38.0965C43.8835 38.2443 43.7415 38.4545 43.7472 38.7272C43.7415 38.9204 43.8239 39.0994 43.9943 39.2642C44.1705 39.4289 44.5085 39.5568 45.0085 39.6477L47.6676 40.125C49.0085 40.3693 50.0057 40.7812 50.6591 41.3607C51.3182 41.9346 51.6506 42.7045 51.6562 43.6704C51.6506 44.6022 51.3722 45.4119 50.821 46.0994C50.2756 46.7812 49.5284 47.3096 48.5795 47.6846C47.6364 48.0539 46.5597 48.2386 45.3494 48.2386C43.3494 48.2386 41.7841 47.8295 40.6534 47.0113C39.5284 46.1931 38.9006 45.1136 38.7699 43.7727H43.4403C43.5028 44.1875 43.7074 44.5085 44.054 44.7357C44.4062 44.9573 44.8494 45.0681 45.3835 45.0681C45.8153 45.0681 46.1705 44.9943 46.4489 44.8465C46.733 44.6988 46.8778 44.4886 46.8835 44.2159C46.8778 43.9659 46.7528 43.767 46.5085 43.6193C46.2699 43.4715 45.8949 43.3522 45.3835 43.2613L43.0653 42.8522C41.7301 42.6193 40.7301 42.1761 40.0653 41.5227C39.4006 40.8693 39.071 40.0284 39.0767 39C39.071 38.0909 39.3097 37.321 39.7926 36.6903C40.2812 36.0539 40.9773 35.571 41.8807 35.2414C42.7898 34.9062 43.8665 34.7386 45.1108 34.7386C47.0028 34.7386 48.4943 35.1306 49.5852 35.9147C50.6818 36.6988 51.2585 37.784 51.3153 39.1704Z" stroke="black" stroke-width="2" mask="url(#path-1-outside-1_1002_192)"/>
<path d="M53.4588 48V34.909H58.1633V48H53.4588ZM55.8111 33.5454C55.1747 33.5454 54.6293 33.3352 54.1747 32.9147C53.7202 32.4943 53.4929 31.9886 53.4929 31.3977C53.4929 30.8068 53.7202 30.3011 54.1747 29.8806C54.6293 29.4602 55.1747 29.25 55.8111 29.25C56.4531 29.25 56.9986 29.4602 57.4474 29.8806C57.902 30.3011 58.1293 30.8068 58.1293 31.3977C58.1293 31.9886 57.902 32.4943 57.4474 32.9147C56.9986 33.3352 56.4531 33.5454 55.8111 33.5454Z" stroke="black" stroke-width="2" mask="url(#path-1-outside-1_1002_192)"/>
<path d="M66.8672 48.2386C65.4467 48.2386 64.2308 47.9573 63.2195 47.3948C62.2081 46.8267 61.4325 46.0369 60.8928 45.0255C60.353 44.0085 60.0831 42.8295 60.0831 41.4886C60.0831 40.1477 60.353 38.9715 60.8928 37.9602C61.4325 36.9431 62.2081 36.1534 63.2195 35.5909C64.2308 35.0227 65.4467 34.7386 66.8672 34.7386C68.1513 34.7386 69.2621 34.9715 70.1996 35.4375C71.1428 35.8977 71.8729 36.5511 72.3899 37.3977C72.907 38.2386 73.1683 39.2272 73.174 40.3636H68.8104C68.7479 39.6761 68.549 39.1534 68.2138 38.7954C67.8842 38.4318 67.4581 38.25 66.9354 38.25C66.5263 38.25 66.1683 38.3693 65.8615 38.6079C65.5547 38.8409 65.316 39.196 65.1456 39.6732C64.9751 40.1448 64.8899 40.7386 64.8899 41.4545C64.8899 42.1704 64.9751 42.767 65.1456 43.2443C65.316 43.7159 65.5547 44.071 65.8615 44.3096C66.1683 44.5426 66.5263 44.659 66.9354 44.659C67.282 44.659 67.5888 44.5795 67.8558 44.4204C68.1229 44.2556 68.3388 44.017 68.5035 43.7045C68.674 43.3863 68.7763 43 68.8104 42.5454H73.174C73.157 43.6988 72.8927 44.7045 72.3814 45.5625C71.87 46.4147 71.1456 47.0738 70.2081 47.5397C69.2763 48.0056 68.1626 48.2386 66.8672 48.2386Z" stroke="black" stroke-width="2" mask="url(#path-1-outside-1_1002_192)"/>
<path d="M91.1633 36.3068C91.0895 36.0056 90.973 35.7414 90.8139 35.5142C90.6548 35.2812 90.456 35.0852 90.2173 34.9261C89.9844 34.7613 89.7116 34.6392 89.3991 34.5596C89.0923 34.4744 88.7543 34.4318 88.3849 34.4318C87.5895 34.4318 86.9105 34.6221 86.348 35.0028C85.7912 35.3835 85.365 35.9318 85.0696 36.6477C84.7798 37.3636 84.6349 38.2272 84.6349 39.2386C84.6349 40.2613 84.7741 41.1363 85.0526 41.8636C85.331 42.5909 85.7457 43.1477 86.2969 43.534C86.848 43.9204 87.5327 44.1136 88.3508 44.1136C89.0724 44.1136 89.6719 44.0085 90.1491 43.7982C90.6321 43.588 90.9929 43.2897 91.2315 42.9034C91.4702 42.517 91.5895 42.0625 91.5895 41.5397L92.4077 41.625H88.419V38.25H96.1577V40.6704C96.1577 42.2613 95.8196 43.6221 95.1435 44.7528C94.473 45.8778 93.5469 46.7414 92.3651 47.3437C91.1889 47.9403 89.8395 48.2386 88.3168 48.2386C86.6179 48.2386 85.1264 47.8778 83.8423 47.1562C82.5582 46.4346 81.5554 45.4062 80.8338 44.071C80.1179 42.7357 79.7599 41.1477 79.7599 39.3068C79.7599 37.8636 79.9787 36.5852 80.4162 35.4715C80.8594 34.3579 81.473 33.4176 82.2571 32.6505C83.0412 31.8778 83.9474 31.2954 84.9758 30.9034C86.0043 30.5056 87.1065 30.3068 88.2827 30.3068C89.3168 30.3068 90.277 30.4545 91.1633 30.75C92.0554 31.0397 92.8423 31.4545 93.5241 31.9943C94.2116 32.5284 94.7656 33.1619 95.1861 33.8948C95.6065 34.6278 95.8622 35.4318 95.9531 36.3068H91.1633Z" stroke="black" stroke-width="2" mask="url(#path-1-outside-1_1002_192)"/>
<path d="M104.708 48.2386C103.31 48.2386 102.106 47.9715 101.094 47.4375C100.089 46.8977 99.3132 46.125 98.7678 45.1193C98.228 44.1079 97.9581 42.8977 97.9581 41.4886C97.9581 40.1363 98.2308 38.9545 98.7763 37.9431C99.3217 36.9318 100.092 36.1448 101.086 35.5823C102.08 35.0198 103.254 34.7386 104.606 34.7386C105.594 34.7386 106.489 34.892 107.29 35.1988C108.092 35.5056 108.776 35.9517 109.344 36.5369C109.913 37.1164 110.35 37.821 110.657 38.6505C110.964 39.4801 111.117 40.4147 111.117 41.4545V42.5454H99.424V39.9545H106.788C106.782 39.5795 106.685 39.25 106.498 38.9659C106.316 38.6761 106.069 38.4517 105.756 38.2926C105.45 38.1278 105.1 38.0454 104.708 38.0454C104.327 38.0454 103.978 38.1278 103.66 38.2926C103.342 38.4517 103.086 38.6732 102.893 38.9573C102.705 39.2414 102.606 39.5738 102.594 39.9545V42.75C102.594 43.1704 102.683 43.5454 102.859 43.875C103.035 44.2045 103.288 44.463 103.617 44.6505C103.947 44.838 104.344 44.9318 104.81 44.9318C105.134 44.9318 105.43 44.8863 105.697 44.7954C105.969 44.7045 106.202 44.5738 106.396 44.4034C106.589 44.2272 106.731 44.017 106.822 43.7727H111.117C110.969 44.6818 110.62 45.4715 110.069 46.142C109.518 46.8068 108.788 47.3238 107.879 47.6931C106.975 48.0568 105.918 48.2386 104.708 48.2386Z" stroke="black" stroke-width="2" mask="url(#path-1-outside-1_1002_192)"/>
<path d="M119.31 48.2386C117.912 48.2386 116.707 47.9715 115.696 47.4375C114.69 46.8977 113.915 46.125 113.369 45.1193C112.83 44.1079 112.56 42.8977 112.56 41.4886C112.56 40.1363 112.832 38.9545 113.378 37.9431C113.923 36.9318 114.693 36.1448 115.687 35.5823C116.682 35.0198 117.855 34.7386 119.207 34.7386C120.196 34.7386 121.091 34.892 121.892 35.1988C122.693 35.5056 123.378 35.9517 123.946 36.5369C124.514 37.1164 124.952 37.821 125.259 38.6505C125.565 39.4801 125.719 40.4147 125.719 41.4545V42.5454H114.026V39.9545H121.389C121.384 39.5795 121.287 39.25 121.099 38.9659C120.918 38.6761 120.67 38.4517 120.358 38.2926C120.051 38.1278 119.702 38.0454 119.31 38.0454C118.929 38.0454 118.58 38.1278 118.261 38.2926C117.943 38.4517 117.687 38.6732 117.494 38.9573C117.307 39.2414 117.207 39.5738 117.196 39.9545V42.75C117.196 43.1704 117.284 43.5454 117.46 43.875C117.636 44.2045 117.889 44.463 118.219 44.6505C118.548 44.838 118.946 44.9318 119.412 44.9318C119.736 44.9318 120.031 44.8863 120.298 44.7954C120.571 44.7045 120.804 44.5738 120.997 44.4034C121.19 44.2272 121.332 44.017 121.423 43.7727H125.719C125.571 44.6818 125.222 45.4715 124.67 46.142C124.119 46.8068 123.389 47.3238 122.48 47.6931C121.577 48.0568 120.52 48.2386 119.31 48.2386Z" stroke="black" stroke-width="2" mask="url(#path-1-outside-1_1002_192)"/>
<path d="M131.866 44.8977L131.9 39.3068H132.513L135.684 34.909H140.968L135.65 41.7613H134.32L131.866 44.8977ZM127.638 48V30.5454H132.343V48H127.638ZM135.718 48L132.718 42.8181L135.786 39.4772L141.104 48H135.718Z" stroke="black" stroke-width="2" mask="url(#path-1-outside-1_1002_192)"/>
</svg>
