<svg width="878" height="821" viewBox="0 0 878 821" fill="none" xmlns="http://www.w3.org/2000/svg">
<path d="M198.432 598.736L200.098 601.435C244.41 664.176 310.834 711.399 391.595 730.518C472.357 749.637 552.906 737.201 620.641 700.99L623.34 699.324C703.331 656.791 765.125 580.754 787.516 486.168C809.908 391.582 788.757 295.909 736.33 222.029L734.665 219.33C690.352 156.589 623.929 109.366 543.167 90.2471C462.405 71.1283 381.857 83.5642 314.121 119.775L311.422 121.441C231.431 163.974 169.637 240.011 147.246 334.597C124.854 429.183 146 524.855 198.432 598.736ZM299.634 382.197C285.891 443.485 282.089 501.749 286.9 552.832C261.032 558.231 235.762 567.621 212.327 578.977C168.53 514.058 150.105 432.861 166.484 350.679L299.634 382.197ZM311.794 571.019C346.737 566.229 381.925 566.874 417.196 573.691L386.021 705.384C347.553 689.358 321.891 638.717 311.794 571.019ZM407.846 710.543L439.021 578.851C473.599 588.575 505.349 603.771 534.435 623.718C495.057 679.709 449.414 713.47 407.846 710.543ZM444.189 557.023L475.709 423.875L608.129 455.223C593.968 511.803 571.762 563.406 545.801 604.897C515.607 583.154 480.95 567.265 444.186 557.024L444.189 557.023ZM480.876 402.048L512.396 268.9C549.846 276.227 587.947 277.566 625.416 271.837C630.02 320.564 626.173 375.748 614.025 433.569L480.876 402.048ZM517.563 247.072L548.739 115.379C587.207 131.4 612.87 182.041 622.967 249.738C588.023 254.532 552.836 253.883 517.564 247.071L517.563 247.072ZM526.915 110.213L495.74 241.906C461.162 232.182 429.412 216.985 400.326 197.039C439.704 141.048 485.347 107.286 526.915 110.213ZM490.572 263.733L459.052 396.881L326.632 365.533C340.792 308.954 362.999 257.351 388.96 215.859C419.154 237.602 453.811 253.491 490.575 263.733L490.572 263.733ZM453.885 418.709L422.365 551.857C384.911 544.529 346.809 543.194 309.339 548.918C304.736 500.191 308.582 445.008 320.731 387.186L453.885 418.709ZM224.721 598.04C245.457 588.349 267.301 580.459 289.186 575.65C295.893 618.726 308.513 656.294 326.804 682.905C286.456 661.83 251.82 632.883 224.72 598.041L224.721 598.04ZM552.57 638.001C569.977 652.112 585.965 668.958 600.156 686.917C560.311 705.912 516.202 716.983 470.865 717.007C499.312 700.689 527.262 673.502 552.571 637.999L552.57 638.001ZM619.607 676.156C603.196 654.6 585.366 635.779 564.67 619.351C591.872 575.85 614.597 522.063 629.79 461.118L762.938 492.638C740.906 572.71 688.033 637.029 619.606 676.153L619.607 676.156ZM768.278 470.086L635.13 438.565C648.872 377.278 652.675 319.013 647.863 267.931C673.732 262.531 699.001 253.141 722.437 241.785C766.233 306.704 784.658 387.902 768.28 470.083L768.278 470.086ZM710.045 222.719C689.309 232.41 667.465 240.3 645.58 245.109C638.873 202.033 626.252 164.465 607.962 137.854C648.31 158.929 682.946 187.877 710.045 222.719ZM382.195 182.758C364.789 168.647 348.801 151.801 334.61 133.842C374.454 114.847 418.564 103.776 463.901 103.752C435.454 120.07 407.504 147.257 382.195 182.759L382.195 182.758ZM315.159 144.603C331.57 166.159 349.4 184.98 370.095 201.408C342.894 244.909 320.169 298.696 304.976 359.641L171.828 328.121C193.86 248.049 246.733 183.73 315.159 144.606L315.159 144.603Z" fill="#302A2A"/>
<path fill-rule="evenodd" clip-rule="evenodd" d="M200.101 601.435L198.435 598.736C146.003 524.855 124.858 429.183 147.249 334.597C169.64 240.011 231.434 163.974 311.425 121.441L314.124 119.775C381.86 83.5643 462.408 71.1284 543.17 90.2471C623.932 109.366 690.356 156.589 734.668 219.33L736.334 222.029C788.761 295.909 809.911 391.582 787.52 486.168C765.128 580.754 703.335 656.791 623.344 699.324L620.645 700.99C552.909 737.201 472.361 749.637 391.599 730.518C310.837 711.399 244.413 664.176 200.101 601.435ZM619.628 676.142C684.727 638.916 735.746 578.883 759.519 504.176C760.731 500.368 761.872 496.522 762.941 492.638L629.793 461.118C614.6 522.063 591.875 575.85 564.674 619.351C582.254 633.306 597.766 648.988 612.098 666.606C614.637 669.727 617.138 672.909 619.608 676.153C619.609 676.154 619.61 676.155 619.61 676.156L619.609 676.153C619.616 676.149 619.622 676.146 619.628 676.142ZM315.145 144.617C250.045 181.843 199.026 241.876 175.253 316.583C174.041 320.391 172.9 324.238 171.831 328.121L304.979 359.641C320.172 298.696 342.897 244.909 370.099 201.408C352.518 187.453 337.006 171.772 322.675 154.153C320.136 151.032 317.634 147.85 315.164 144.606C315.163 144.605 315.163 144.604 315.162 144.604L315.163 144.606C315.157 144.61 315.151 144.613 315.145 144.617ZM494.441 716.005C527.258 713.237 559.132 704.839 588.872 692.035C592.67 690.4 596.433 688.693 600.159 686.917C597.602 683.681 594.987 680.482 592.316 677.328C582.808 666.103 572.59 655.455 561.76 645.812C558.745 643.127 555.682 640.521 552.574 638.001C552.572 638.003 552.57 638.005 552.568 638.007C550.216 641.308 547.84 644.536 545.443 647.69C527.893 670.79 509.211 689.926 490.074 704.293C483.714 709.068 477.304 713.316 470.868 717.007C478.768 717.003 486.632 716.663 494.441 716.005ZM512.091 701.815C535.79 698.187 558.874 691.546 580.833 682.391C572.557 672.825 563.783 663.775 554.587 655.518C541.105 673.197 526.855 688.773 512.091 701.815ZM529.428 249.131C556.716 253.341 583.942 253.907 611.033 251.162C615.015 250.758 618.994 250.283 622.97 249.738C622.372 245.723 621.718 241.769 621.01 237.878C610.96 182.62 589.986 140.198 559.735 121.105C556.197 118.872 552.532 116.958 548.742 115.379L517.567 247.071C521.522 247.835 525.475 248.521 529.428 249.131ZM532.205 237.399C557.878 241.278 583.507 241.811 609.052 239.284C603.955 211.6 596.094 187.728 585.922 168.889C577.452 153.202 567.615 141.415 556.777 133.604L532.205 237.399ZM479.038 260.309C450.473 251.311 423.368 238.802 398.87 222.681C395.518 220.475 392.214 218.201 388.963 215.859C386.854 219.229 384.771 222.666 382.714 226.166C361.194 262.794 342.637 306.424 329.677 353.905C328.626 357.756 327.611 361.633 326.635 365.533L459.056 396.881L490.576 263.733L490.579 263.733C490.577 263.732 490.576 263.732 490.575 263.732C486.705 262.654 482.858 261.513 479.038 260.309ZM480.879 402.048L614.028 433.569C614.856 429.627 615.646 425.698 616.397 421.781C625.766 372.923 629.122 326.161 626.375 283.846C626.112 279.802 625.794 275.798 625.42 271.837C621.453 272.444 617.479 272.971 613.499 273.421C581.377 277.048 548.894 275.597 516.848 269.741C515.364 269.47 513.881 269.19 512.399 268.9L480.879 402.048ZM521.472 282.737L495.341 393.123L604.693 419.011C613.769 371.48 617.004 326.202 614.434 285.408C583.469 288.863 552.257 287.773 521.472 282.737ZM476.262 272.033C446.583 262.761 418.3 249.795 392.652 232.974C371.935 268.392 353.981 310.632 341.377 356.675L450.13 382.42L476.262 272.033ZM455.73 560.447C484.294 569.445 511.399 581.955 535.897 598.076C539.25 600.282 542.553 602.556 545.805 604.897C547.913 601.527 549.997 598.091 552.053 594.591C573.574 557.962 592.131 514.332 605.09 466.852C606.142 463 607.156 459.123 608.132 455.223L475.712 423.875L444.192 557.023L444.189 557.024C444.19 557.024 444.191 557.024 444.192 557.025C448.062 558.103 451.909 559.244 455.73 560.447ZM458.505 548.724C488.184 557.995 516.468 570.962 542.115 587.783C562.833 552.364 580.787 510.124 593.39 464.082L484.637 438.337L458.505 548.724ZM389.329 173.069C406.879 149.969 425.561 130.833 444.698 116.466C451.058 111.691 457.469 107.444 463.904 103.752C456.004 103.756 448.141 104.096 440.331 104.754C407.514 107.522 375.64 115.92 345.9 128.724C342.102 130.359 338.339 132.066 334.613 133.842C337.17 137.078 339.785 140.277 342.456 143.431C351.964 154.657 362.182 165.305 373.012 174.947C376.028 177.632 379.091 180.239 382.199 182.758C382.2 182.756 382.202 182.754 382.204 182.752C384.557 179.452 386.932 176.223 389.329 173.069ZM380.185 165.241C393.667 147.562 407.917 131.986 422.682 118.944C398.982 122.572 375.898 129.214 353.94 138.368C362.215 147.934 370.99 156.984 380.185 165.241ZM312.219 160.336C254.118 196.25 208.816 251.484 186.981 319.359L296.295 345.237C310.598 291.956 330.625 244.182 354.416 204.06C338.964 190.872 325.101 176.328 312.219 160.336ZM619.94 158.405C616.265 150.995 612.272 144.12 607.965 137.854C615.207 141.636 622.264 145.672 629.127 149.951C656.923 167.278 681.528 188.578 702.241 213.09C704.908 216.247 707.511 219.457 710.048 222.719C706.312 224.465 702.54 226.153 698.738 227.775C685.207 233.546 671.3 238.482 657.297 242.245C653.398 243.293 649.491 244.25 645.583 245.109C644.96 241.107 644.286 237.152 643.561 233.25C638.32 205.038 630.422 179.54 619.94 158.405ZM638.495 170.641C645.657 188.744 651.221 208.907 655.244 230.352C667.155 227.097 679.045 222.945 690.721 218.11C675.371 200.388 657.865 184.457 638.495 170.641ZM622.553 660.423C680.654 624.509 725.956 569.275 747.791 501.4L638.477 475.522C624.174 528.803 604.148 576.577 580.356 616.699C595.808 629.887 609.671 644.431 622.553 660.423ZM314.832 662.354C318.507 669.765 322.5 676.639 326.807 682.905C319.566 679.123 312.508 675.087 305.645 670.809C277.849 653.481 253.243 632.181 232.531 607.669C229.864 604.514 227.262 601.305 224.726 598.044C224.726 598.044 224.725 598.042 224.725 598.042C224.724 598.041 224.724 598.042 224.724 598.041M224.727 598.038C228.462 596.293 232.233 594.606 236.033 592.985C249.564 587.213 263.472 582.277 277.475 578.514C281.375 577.466 285.281 576.509 289.189 575.65C289.813 579.652 290.487 583.607 291.212 587.509C296.452 615.721 304.351 641.219 314.832 662.354M296.278 650.119C289.116 632.015 283.551 611.852 279.529 590.407C267.617 593.662 255.726 597.814 244.05 602.65C259.401 620.372 276.907 636.303 296.278 650.119ZM746.359 215.393C800.559 291.96 822.393 391.021 799.213 488.936C776.034 586.851 712.11 665.61 629.329 709.751L626.638 711.412L626.31 711.588C556.074 749.135 472.534 762.026 388.831 742.211C305.128 722.396 236.234 673.425 190.285 608.367L190.071 608.063L188.41 605.373C134.205 528.804 112.376 429.744 135.556 331.829C158.735 233.914 222.659 155.155 305.44 111.014L308.13 109.353L308.459 109.178C378.695 71.6305 462.235 58.7387 545.938 78.5538C629.641 98.3688 698.535 147.34 744.483 212.398L744.698 212.702L746.359 215.393ZM285.417 391.18L176.092 365.301C165 436.421 180.754 506.123 216.707 563.659C234.946 555.412 254.24 548.375 274.075 543.443C270.796 496.907 274.314 445.222 285.417 391.18ZM286.903 552.832C282.092 501.749 285.895 443.485 299.637 382.197L166.487 350.679C165.699 354.631 164.992 358.58 164.365 362.526C151.939 440.632 170.639 517.18 212.33 578.977C235.765 567.621 261.035 558.231 286.903 552.832ZM323.734 569.596C319.752 569.999 315.773 570.474 311.797 571.019C312.396 575.033 313.049 578.988 313.757 582.879C323.807 638.138 344.781 680.56 375.031 699.657C378.569 701.89 382.234 703.805 386.024 705.384L417.199 573.691C413.245 572.927 409.291 572.24 405.339 571.63C378.051 567.417 350.825 566.853 323.734 569.596ZM325.716 581.474C330.813 609.158 338.673 633.03 348.845 651.869C357.315 667.557 367.152 679.345 377.99 687.158L402.562 583.361C376.891 579.48 351.261 578.949 325.716 581.474ZM407.849 710.543C411.944 710.832 416.078 710.764 420.242 710.354C455.843 706.849 493.61 678.333 527.369 633.441C529.746 630.28 532.103 627.038 534.438 623.718C531.129 621.448 527.784 619.24 524.405 617.094C501.42 602.498 476.827 590.797 450.55 582.327C446.744 581.1 442.902 579.941 439.025 578.851L407.849 710.543ZM423.201 697.856C436.391 695.732 450.468 689.607 465.073 679.381C482.612 667.102 500.341 649.286 517.309 626.823C495.608 613.116 472.457 602.101 447.773 594.059L423.201 697.856ZM526.918 110.213C522.824 109.925 518.689 109.993 514.525 110.402C478.925 113.907 441.157 142.424 407.398 187.316C405.021 190.477 402.664 193.719 400.329 197.039C403.639 199.309 406.983 201.517 410.362 203.662C433.348 218.259 457.941 229.959 484.217 238.429C488.024 239.656 491.865 240.816 495.743 241.906L526.918 110.213ZM511.566 122.901C498.376 125.024 484.299 131.15 469.694 141.375C452.156 153.655 434.427 171.47 417.458 193.933C439.159 207.641 462.31 218.656 486.994 226.698L511.566 122.901ZM413.295 538.02L439.427 427.634L330.07 401.745C320.993 449.276 317.758 494.554 320.329 535.349C351.293 531.896 382.507 532.984 413.295 538.02ZM422.368 551.857C388.879 545.304 354.873 543.544 321.263 547.336C317.284 547.785 313.31 548.312 309.343 548.918C308.968 544.957 308.65 540.953 308.387 536.909C305.64 494.594 308.996 447.832 318.365 398.974C319.116 395.058 319.906 391.128 320.734 387.186L453.888 418.709L422.368 551.857ZM768.291 470.045C769.075 466.107 769.78 462.171 770.405 458.24C782.832 380.133 764.131 303.583 722.44 241.785C699.005 253.141 673.735 262.531 647.867 267.931C652.678 319.013 648.875 377.278 635.133 438.566L768.281 470.086L768.283 470.083C768.286 470.071 768.288 470.058 768.291 470.045ZM758.678 455.464C769.77 384.343 754.017 314.64 718.063 257.104C699.824 265.35 680.53 272.387 660.695 277.32C663.975 323.855 660.456 375.541 649.353 429.583L758.678 455.464Z" fill="#302A2A"/>
<path d="M104.783 551.952L39 329.048H106.525L137.02 466.186H138.763L174.922 329.048H228.07L264.229 466.622H265.972L296.467 329.048H363.992L298.209 551.952H240.269L202.367 427.439H200.625L162.724 551.952H104.783Z" fill="black"/>
<path d="M383.596 329.048H458.963L510.805 455.302H513.419L565.26 329.048H640.627V551.952H581.379V423.086H579.637L529.973 550.211H494.25L444.587 422.215H442.844V551.952H383.596V329.048Z" fill="black"/>
<path d="M814.178 402.624C813.234 398.778 811.745 395.404 809.712 392.501C807.679 389.526 805.138 387.023 802.089 384.991C799.112 382.887 795.627 381.327 791.633 380.311C787.712 379.223 783.392 378.679 778.673 378.679C768.508 378.679 759.831 381.109 752.643 385.971C745.527 390.833 740.082 397.835 736.306 406.977C732.603 416.12 730.752 427.149 730.752 440.065C730.752 453.125 732.531 464.3 736.088 473.587C739.646 482.875 744.946 489.986 751.989 494.92C759.032 499.854 767.782 502.321 778.237 502.321C787.458 502.321 795.118 500.979 801.217 498.294C807.389 495.609 812 491.8 815.049 486.866C818.099 481.932 819.623 476.127 819.623 469.452L830.079 470.54H779.108V427.439H878V458.35C878 478.667 873.68 496.045 865.04 510.484C856.472 524.851 844.637 535.88 829.534 543.572C814.505 551.191 797.26 555 777.801 555C756.092 555 737.032 550.392 720.623 541.177C704.214 531.962 691.398 518.829 682.177 501.777C673.029 484.725 668.454 464.445 668.454 440.935C668.454 422.505 671.25 406.179 676.84 391.957C682.504 377.735 690.345 365.727 700.365 355.931C710.385 346.063 721.966 338.625 735.108 333.619C748.25 328.54 762.336 326 777.366 326C790.58 326 802.851 327.887 814.178 331.66C825.577 335.36 835.633 340.657 844.346 347.55C853.132 354.371 860.211 362.462 865.584 371.822C870.957 381.182 874.224 391.449 875.386 402.624H814.178Z" fill="black"/>
<path d="M779.5 470.5L743.5 433.5L820.5 426.5L779.5 470.5Z" fill="black"/>
<path d="M693 518L656.5 476L736 460L693 518Z" fill="black"/>
<path d="M878 427.5L856 376.5L843.5 429.5L878 427.5Z" fill="black"/>
<path d="M867.5 376L847.5 334L833 378L867.5 376Z" fill="black"/>
<path d="M581.5 552L542 511.5L601 489.5L581.5 552Z" fill="black"/>
<path d="M640.5 329L579 331L618.5 278L640.5 329Z" fill="black"/>
<path d="M459 329L395 331L434.5 278L459 329Z" fill="black"/>
<path d="M360 330.5L305 331L344.5 278L360 330.5Z" fill="black"/>
<path d="M228 329L171 331L204.5 278L228 329Z" fill="black"/>
<path d="M107 329L50 331L83.5 278L107 329Z" fill="black"/>
<path d="M494.5 550L460.5 513L515 489.5L494.5 550Z" fill="black"/>
<path d="M383.5 552L347.5 515L404.5 489.5L383.5 552Z" fill="black"/>
<path d="M240.5 552L207 515L264 489.5L240.5 552Z" fill="black"/>
<path d="M104.5 551.5L71 514.5L128 489L104.5 551.5Z" fill="black"/>
<path d="M72.4257 508.943L73.1662 511.452H75.7826H133.724H136.317L137.072 508.972L172.496 392.596L207.92 508.972L208.675 511.452H211.269H269.209H271.826L272.566 508.943L338.349 286.038L339.674 281.548H334.992H267.467H264.658L264.05 284.29L235.885 411.35L202.455 284.158L201.769 281.548H199.07H145.922H143.225L142.537 284.155L109.107 410.947L80.9417 284.288L80.3324 281.548H77.5252H10H5.31787L6.64313 286.038L72.4257 508.943ZM354.596 281.548H351.096V285.048V507.952V511.452H354.596H413.844H417.344V507.952V392.42L461.987 507.477L462.854 509.711H465.25H500.973H503.363L504.233 507.485L548.879 393.202V507.952V511.452H552.379H611.627H615.127V507.952V285.048V281.548H611.627H536.26H533.914L533.023 283.718L483.112 405.271L433.201 283.718L432.309 281.548H429.963H354.596ZM781.779 359.458L782.433 362.124H785.178H846.386H850.269L849.867 358.262C848.657 346.622 845.246 335.881 839.62 326.079C834.015 316.315 826.633 307.884 817.503 300.794C808.446 293.631 798.023 288.151 786.271 284.335C774.555 280.434 761.911 278.5 748.366 278.5C732.936 278.5 718.422 281.108 704.853 286.352C691.264 291.53 679.276 299.229 668.914 309.433C658.515 319.6 650.415 332.031 644.589 346.662L644.586 346.67L644.583 346.677C638.803 361.381 635.954 378.155 635.954 396.935C635.954 420.899 640.619 441.773 650.093 459.432L650.098 459.442C659.624 477.057 672.905 490.68 689.909 500.229C706.917 509.781 726.585 514.5 748.801 514.5C768.725 514.5 786.526 510.597 802.117 502.694L802.123 502.691C817.804 494.705 830.133 483.221 839.043 468.281C848.07 453.196 852.5 435.168 852.5 414.35V383.439V379.939H849H750.108H746.608V383.439V426.54V430.04H750.108H786.842C786.312 434.2 785.038 437.844 783.072 441.026C780.455 445.26 776.447 448.638 770.821 451.085L770.814 451.088L770.807 451.091C765.288 453.52 758.147 454.821 749.237 454.821C739.343 454.821 731.335 452.493 724.998 448.054C718.612 443.58 713.705 437.076 710.357 428.335C706.992 419.551 705.252 408.824 705.252 396.065C705.252 383.471 707.059 372.915 710.547 364.299C714.101 355.701 719.144 349.286 725.611 344.865C732.125 340.462 740.087 338.179 749.673 338.179C754.125 338.179 758.125 338.692 761.697 339.684L761.734 339.694L761.77 339.703C765.402 340.627 768.484 342.023 771.068 343.85L771.108 343.877L771.148 343.904C773.831 345.691 776.047 347.878 777.823 350.476L777.834 350.493L777.846 350.509C779.603 353.018 780.926 355.984 781.779 359.458Z" fill="white" stroke="black" stroke-width="7"/>
</svg>
